<?xml version="1.0" standalone="no"?>
<!DOCTYPE svg PUBLIC "-//W3C//DTD SVG 20010904//EN"
 "http://www.w3.org/TR/2001/REC-SVG-20010904/DTD/svg10.dtd">
<svg version="1.0" xmlns="http://www.w3.org/2000/svg"
 width="657.000000pt" height="584.000000pt" viewBox="0 0 657.000000 584.000000"
 preserveAspectRatio="xMidYMid meet">

<g transform="translate(0.000000,584.000000) scale(0.100000,-0.100000)"
fill="#000000" stroke="none">
<path d="M1310 5641 l0 -61 1473 0 c811 0 1529 -3 1595 -7 l122 -6 0 -164 0
-164 295 7 295 7 0 -1052 0 -1051 55 0 55 0 0 -195 0 -195 -60 0 -60 0 2 -462
3 -462 58 3 57 2 0 -445 0 -446 -50 0 -50 0 -2 173 c-1 94 -3 144 -5 109 l-4
-62 -619 0 c-612 0 -620 0 -620 -20 0 -19 -8 -20 -272 -23 l-273 -2 277 -3
277 -2 -2 -92 -2 -93 103 0 c56 0 361 1 677 3 l575 2 0 450 0 450 50 0 49 0 4
-132 c1 -73 4 134 5 460 l2 592 -57 2 -58 1 60 7 60 7 -57 1 -58 2 0 185 0
185 49 0 c39 0 50 -4 53 -17 6 -30 18 1208 18 1904 l0 653 -1918 0 c-1056 0
-1960 3 -2010 6 l-92 7 0 -62z m3780 -176 l0 -105 -235 0 -235 0 0 38 c0 20
-3 67 -7 105 l-6 67 242 0 241 0 0 -105z m0 -4380 l0 -75 -340 0 -340 0 0 75
0 75 340 0 340 0 0 -75z m-650 -110 c0 -16 -6 -25 -15 -25 -9 0 -15 9 -15 25
0 16 6 25 15 25 9 0 15 -9 15 -25z m650 0 l0 -25 -320 0 -320 0 0 25 0 25 320
0 320 0 0 -25z"/>
<path d="M6185 5548 c-49 -33 -83 -58 -75 -55 8 2 59 15 113 27 82 19 97 25
91 39 -3 9 -9 24 -11 34 -3 9 -10 17 -17 16 -6 0 -51 -27 -101 -61z"/>
<path d="M5910 5475 c0 -42 3 -55 15 -55 10 0 15 10 15 33 l1 32 27 -33 c40
-47 52 -42 52 23 0 42 -3 55 -15 55 -10 0 -15 -10 -15 -32 l0 -33 -26 33 c-39
49 -54 43 -54 -23z"/>
<path d="M2090 5345 c0 -32 3 -35 28 -34 l27 0 -25 11 c-23 9 -24 11 -6 17 19
7 19 8 0 16 -18 7 -17 8 6 15 l25 8 -27 1 c-25 1 -28 -2 -28 -34z"/>
<path d="M2160 5364 c0 -9 9 -18 20 -21 11 -3 17 -9 15 -14 -3 -4 -13 -5 -23
-2 -13 5 -15 3 -5 -7 14 -15 43 -6 43 14 0 7 -10 17 -22 21 l-23 7 25 8 25 8
-27 1 c-19 1 -28 -4 -28 -15z"/>
<path d="M2233 5345 c0 -22 2 -30 4 -17 2 12 2 30 0 40 -3 9 -5 -1 -4 -23z"/>
<path d="M2260 5351 c0 -17 5 -33 10 -36 6 -3 10 2 10 11 0 16 1 16 18 1 26
-24 36 -21 18 5 -11 16 -13 25 -4 35 6 7 7 13 3 13 -4 0 -14 -8 -21 -17 -13
-17 -13 -17 -14 0 0 30 -20 18 -20 -12z"/>
<path d="M2143 5243 c9 -2 15 -9 11 -14 -3 -6 0 -16 6 -24 16 -19 2 -38 -23
-31 -14 3 -17 2 -9 -6 5 -5 19 -7 31 -3 22 7 28 29 11 40 -6 4 -8 15 -5 26 5
15 2 19 -17 18 -17 -1 -18 -3 -5 -6z"/>
<path d="M2039 5223 c-13 -16 -12 -17 4 -4 9 7 17 15 17 17 0 8 -8 3 -21 -13z"/>
<path d="M2370 5225 c-7 -9 -11 -17 -9 -20 3 -2 10 5 17 15 14 24 10 26 -8 5z"/>
<path d="M2243 5223 c-7 -2 -12 -19 -12 -36 l1 -32 7 30 c3 17 13 30 21 30 9
0 17 -12 19 -30 l4 -30 6 30 c5 21 12 30 25 28 13 -1 15 2 7 10 -7 7 -14 7
-25 -2 -10 -8 -16 -9 -21 -1 -7 11 -13 11 -32 3z"/>
<path d="M2062 5185 c0 -16 2 -22 5 -12 2 9 2 23 0 30 -3 6 -5 -1 -5 -18z"/>
<path d="M2331 5184 c0 -11 3 -14 6 -6 3 7 2 16 -1 19 -3 4 -6 -2 -5 -13z"/>
<path d="M4935 5080 c-3 -5 -1 -10 4 -10 6 0 11 5 11 10 0 6 -2 10 -4 10 -3 0
-8 -4 -11 -10z"/>
<path d="M1300 2975 l0 -2055 208 0 207 0 -2 95 -3 95 413 -2 412 -3 0 -88 0
-87 378 0 379 0 -4 113 -3 112 -55 5 -54 5 2 725 c1 399 5 779 8 846 l7 121
-33 6 c-18 4 -52 7 -76 7 l-44 0 0 -39 c0 -37 2 -40 32 -43 l32 -3 -2 -730
c-2 -401 -5 -767 -9 -812 l-6 -83 -279 0 c-275 0 -279 0 -273 -20 6 -20 2 -20
-410 -20 -393 0 -417 1 -413 18 4 16 -7 17 -141 17 l-146 0 -3 1137 -2 1138
528 0 529 0 6 -127 c4 -71 7 -215 7 -320 l0 -193 75 0 75 0 0 40 c0 39 -1 40
-33 40 l-34 0 -7 270 c-4 149 -4 275 -1 280 4 6 17 10 31 10 21 0 24 5 24 33
l0 34 -172 6 c-95 4 -286 7 -425 7 l-252 0 0 259 0 260 27 4 27 4 -27 2 -28 1
1 233 c1 129 5 219 9 202 7 -26 8 -27 9 -6 1 16 5 21 16 17 8 -3 15 -1 15 4 0
6 172 7 450 4 l450 -6 0 60 c0 32 3 119 6 193 l7 134 190 0 190 0 -6 -485 c-4
-267 -7 -576 -7 -687 l0 -203 -41 0 -40 0 3 -37 3 -38 72 1 c40 0 74 2 77 5 2
2 7 347 11 767 l7 762 -271 0 -271 0 0 -142 c0 -79 -3 -167 -7 -197 l-6 -53
-131 6 c-72 3 -267 6 -433 6 l-303 0 0 200 0 200 -175 0 -175 0 0 25 c0 24 -3
25 -60 25 l-60 0 0 -2055z m350 1230 l0 -665 -115 0 -115 0 0 665 0 665 115 0
115 0 0 -665z"/>
<path d="M3730 4771 c0 -28 2 -31 14 -22 10 8 16 9 21 1 3 -5 11 -10 17 -10 7
0 6 5 -2 15 -7 8 -9 22 -6 31 6 14 4 15 -10 4 -13 -12 -17 -11 -25 1 -6 10 -9
4 -9 -20z"/>
<path d="M3807 4794 c-25 -25 8 -66 45 -56 30 8 20 56 -12 60 -14 2 -29 0 -33
-4z m48 -24 c0 -8 -8 -16 -17 -18 -13 -2 -18 3 -18 18 0 15 5 20 18 18 9 -2
17 -10 17 -18z"/>
<path d="M3897 4794 c-13 -14 -7 -43 12 -53 24 -13 55 8 50 35 -4 19 -48 32
-62 18z m51 -21 c5 -17 -26 -29 -40 -15 -6 6 -7 15 -3 22 9 14 37 9 43 -7z"/>
<path d="M3980 4770 c0 -16 5 -30 10 -30 6 0 10 5 10 12 0 9 3 9 12 0 17 -17
33 -15 18 3 -10 12 -10 18 0 30 15 18 -1 20 -18 3 -9 -9 -12 -9 -12 0 0 7 -4
12 -10 12 -5 0 -10 -13 -10 -30z"/>
<path d="M4100 4770 c0 -26 3 -30 28 -29 l27 1 -25 8 c-21 7 -22 8 -5 9 l20 2
-20 11 c-19 12 -19 12 5 19 l25 7 -27 1 c-25 1 -28 -3 -28 -29z"/>
<path d="M4171 4773 c-1 -30 2 -33 27 -32 22 1 23 2 5 6 -14 3 -23 13 -26 31
-4 24 -4 24 -6 -5z"/>
<path d="M4230 4776 c0 -29 22 -49 44 -40 10 4 15 17 15 38 -2 30 -2 30 -6 4
-5 -35 -33 -37 -33 -3 0 14 -4 25 -10 25 -5 0 -10 -11 -10 -24z"/>
<path d="M4316 4792 c7 -4 14 -18 17 -32 l4 -25 2 27 c0 16 8 28 19 31 9 3 1
5 -18 6 -19 0 -30 -3 -24 -7z"/>
<path d="M4381 4774 c0 -21 5 -34 15 -38 23 -9 44 12 43 43 l-1 26 -7 -25
c-10 -36 -39 -38 -44 -3 -4 28 -4 28 -6 -3z"/>
<path d="M4460 4770 c0 -16 5 -30 10 -30 6 0 10 5 10 10 0 6 7 10 16 10 8 0
12 -4 9 -10 -3 -5 -1 -10 4 -10 6 0 11 14 11 30 0 27 -3 30 -30 30 -27 0 -30
-3 -30 -30z m45 10 c-3 -5 -10 -10 -16 -10 -5 0 -9 5 -9 10 0 6 7 10 16 10 8
0 12 -4 9 -10z"/>
<path d="M4550 4774 c-6 -14 -10 -26 -10 -27 0 -1 15 -2 34 -3 l35 0 -15 28
c-18 35 -32 36 -44 2z m30 -4 c0 -5 -4 -10 -10 -10 -5 0 -10 5 -10 10 0 6 5
10 10 10 6 0 10 -4 10 -10z"/>
<path d="M4058 4763 c7 -3 16 -2 19 1 4 3 -2 6 -13 5 -11 0 -14 -3 -6 -6z"/>
<path d="M4127 4662 c6 -4 13 -23 16 -42 4 -33 4 -33 5 8 2 34 -1 42 -15 42
-12 0 -14 -3 -6 -8z"/>
<path d="M4352 4650 c-18 -29 -15 -38 4 -12 9 13 14 25 12 27 -2 2 -9 -5 -16
-15z"/>
<path d="M4001 4651 c-1 -8 -11 -26 -23 -40 l-22 -26 28 26 c16 15 26 33 23
40 -4 11 -6 11 -6 0z"/>
<path d="M4030 4640 c0 -11 4 -20 9 -20 5 0 7 9 4 20 -3 11 -7 20 -9 20 -2 0
-4 -9 -4 -20z"/>
<path d="M4211 4616 c1 -29 1 -30 8 -6 4 14 13 25 21 25 8 0 17 -11 21 -25 l7
-25 1 28 c1 15 -2 28 -6 28 -49 8 -53 6 -52 -25z"/>
<path d="M4280 4646 c0 -2 7 -7 16 -10 8 -3 12 -2 9 4 -6 10 -25 14 -25 6z"/>
<path d="M4075 4623 c4 -15 0 -25 -12 -32 -10 -6 -13 -11 -7 -11 22 0 36 27
24 47 -10 16 -10 16 -5 -4z"/>
<path d="M3254 4473 c-6 -2 -8 -17 -5 -36 l5 -32 7 35 c8 39 8 39 -7 33z"/>
<path d="M3450 4462 c0 -12 4 -22 9 -22 10 0 9 26 -2 36 -4 4 -7 -2 -7 -14z"/>
<path d="M3557 4473 c-2 -5 -1 -21 3 -38 l6 -30 5 33 c5 30 -4 53 -14 35z"/>
<path d="M3760 4451 c0 -25 6 -27 13 -6 4 8 2 17 -3 20 -6 4 -10 -3 -10 -14z"/>
<path d="M1780 4295 c0 -8 2 -15 4 -15 2 0 6 7 10 15 3 8 1 15 -4 15 -6 0 -10
-7 -10 -15z"/>
<path d="M1782 4245 c3 -29 18 -34 18 -6 0 11 6 22 13 24 6 3 2 6 -10 6 -18 1
-22 -4 -21 -24z"/>
<path d="M2127 4085 c9 -19 20 -35 24 -35 9 0 33 59 26 66 -3 3 -8 -4 -12 -15
-8 -27 -22 -27 -30 -1 -3 11 -10 20 -16 20 -5 0 -1 -16 8 -35z"/>
<path d="M2205 4090 c-19 -37 -19 -46 1 -29 12 10 20 10 35 1 10 -7 19 -10 19
-7 0 9 -30 65 -35 65 -2 0 -11 -13 -20 -30z"/>
<path d="M2281 4084 c1 -33 2 -35 8 -14 l7 25 12 -22 c18 -33 32 -28 32 12 0
19 -4 35 -10 35 -5 0 -10 -7 -10 -17 0 -14 -2 -14 -20 2 -20 18 -20 17 -19
-21z"/>
<path d="M2360 4085 c0 -19 5 -35 10 -35 6 0 10 7 10 17 0 14 2 14 20 -2 20
-18 20 -17 19 21 -1 33 -2 35 -8 14 l-7 -25 -12 23 c-18 32 -32 27 -32 -13z"/>
<path d="M2453 4085 c0 -22 2 -30 4 -17 2 12 2 30 0 40 -3 9 -5 -1 -4 -23z"/>
<path d="M2483 4113 c11 -3 18 -15 18 -36 l2 -32 4 30 c3 16 10 33 16 37 7 4
-4 7 -23 7 -19 -1 -27 -3 -17 -6z"/>
<path d="M2551 4092 c-1 -37 20 -52 44 -32 17 14 21 60 5 60 -5 0 -10 -14 -10
-31 0 -39 -22 -34 -31 7 l-7 29 -1 -33z"/>
<path d="M2630 4085 c0 -34 2 -36 28 -33 23 3 27 8 27 33 0 25 -4 30 -27 33
-26 3 -28 1 -28 -33z m40 15 c0 -5 -4 -10 -10 -10 -5 0 -10 5 -10 10 0 6 5 10
10 10 6 0 10 -4 10 -10z m2 -32 c-9 -9 -15 -9 -24 0 -9 9 -7 12 12 12 19 0 21
-3 12 -12z"/>
<path d="M2717 4085 c-17 -35 -12 -46 11 -23 9 9 15 9 24 0 23 -23 28 -12 11
23 -9 19 -20 35 -23 35 -3 0 -14 -16 -23 -35z m28 5 c3 -5 1 -10 -4 -10 -6 0
-11 5 -11 10 0 6 2 10 4 10 3 0 8 -4 11 -10z"/>
<path d="M3022 3975 c0 -16 2 -22 5 -12 2 9 2 23 0 30 -3 6 -5 -1 -5 -18z"/>
<path d="M2471 3927 c2 -30 2 -31 6 -4 3 18 10 27 23 27 13 0 20 -9 23 -27 l4
-28 2 27 c1 19 7 28 24 30 12 3 -2 5 -30 6 l-53 1 1 -32z"/>
<path d="M2267 3943 c-13 -12 -7 -23 12 -23 11 0 21 -5 23 -12 3 -8 6 -7 10 3
3 9 2 22 -3 30 -6 10 -9 10 -9 2 0 -7 -7 -13 -16 -13 -8 0 -12 5 -9 10 7 11 2
13 -8 3z"/>
<path d="M2388 3943 c27 -6 29 -30 2 -36 -17 -4 -16 -4 2 -3 34 2 32 40 -2 43
-22 1 -22 1 -2 -4z"/>
<path d="M2572 3920 c0 -14 2 -19 5 -12 2 6 2 18 0 25 -3 6 -5 1 -5 -13z"/>
<path d="M3468 3890 c-6 -38 -3 -49 10 -34 5 5 6 23 2 39 l-6 30 -6 -35z"/>
<path d="M3778 3880 c-3 -19 0 -30 7 -30 7 0 10 11 7 30 -2 17 -5 30 -7 30 -2
0 -5 -13 -7 -30z"/>
<path d="M3264 3875 c4 -24 16 -30 16 -7 0 12 -4 22 -9 22 -5 0 -8 -7 -7 -15z"/>
<path d="M3574 3875 c4 -24 16 -30 16 -7 0 12 -4 22 -9 22 -5 0 -8 -7 -7 -15z"/>
<path d="M1864 3861 c3 -5 15 -7 26 -4 28 7 25 13 -6 13 -14 0 -23 -4 -20 -9z"/>
<path d="M1883 3755 c0 -33 2 -45 4 -27 2 18 2 45 0 60 -2 15 -4 0 -4 -33z"/>
<path d="M2139 3713 c-13 -16 -12 -17 4 -4 9 7 17 15 17 17 0 8 -8 3 -21 -13z"/>
<path d="M1848 3663 c12 -2 32 -2 45 0 12 2 2 4 -23 4 -25 0 -35 -2 -22 -4z"/>
<path d="M2008 3663 c6 -2 18 -2 25 0 6 3 1 5 -13 5 -14 0 -19 -2 -12 -5z"/>
<path d="M3953 3543 c-31 -6 -71 -56 -79 -99 -8 -44 9 -104 37 -130 15 -13 36
-19 71 -19 43 0 53 4 75 29 29 35 26 80 -8 109 -24 20 -89 23 -107 5 -19 -19
-15 13 4 41 14 19 24 22 59 19 33 -2 46 1 54 14 19 30 -33 45 -106 31z m57
-148 c26 -32 -13 -81 -47 -59 -35 22 -23 74 17 74 10 0 23 -7 30 -15z"/>
<path d="M3808 3183 c89 -2 235 -2 325 0 89 1 16 3 -163 3 -179 0 -252 -2
-162 -3z"/>
<path d="M3691 3091 c-17 -21 -31 -42 -31 -45 0 -3 14 -6 30 -6 22 0 33 -6 40
-22 l9 -23 0 23 c1 12 7 22 14 22 8 0 9 3 1 8 -6 4 -14 14 -17 22 -4 12 -6 11
-6 -2 -1 -12 -9 -18 -26 -18 -31 0 -31 3 1 46 36 47 23 43 -15 -5z"/>
<path d="M3793 3118 c-5 -7 -10 -32 -11 -55 -1 -34 4 -45 19 -54 12 -6 23 -8
26 -6 2 3 -5 8 -16 12 -25 8 -27 30 -5 43 14 8 14 10 0 22 -13 10 -14 16 -5
26 6 8 17 14 24 14 7 0 18 -6 24 -14 9 -10 8 -16 -5 -26 -14 -12 -14 -14 0
-22 18 -10 21 -34 6 -41 -6 -3 -5 -4 2 -3 16 3 20 85 5 104 -5 6 -20 12 -32
12 -12 0 -27 -6 -32 -12z"/>
<path d="M3932 3123 c13 -3 18 -18 21 -66 l3 -62 2 68 c2 64 1 67 -20 66 -17
-1 -18 -3 -6 -6z"/>
<path d="M4271 3118 c-1 -10 -10 -23 -21 -30 -28 -18 -25 -28 8 -27 18 1 21 3
9 6 -17 4 -17 6 -2 23 10 10 15 25 12 32 -4 8 -6 7 -6 -4z"/>
<path d="M4063 3093 c-8 -3 -12 -21 -11 -46 l1 -42 4 37 c7 66 59 58 66 -10
l4 -37 1 36 c4 74 57 74 65 1 l4 -37 1 41 c2 52 -17 72 -53 56 -15 -7 -26 -8
-30 -2 -6 10 -31 12 -52 3z"/>
<path d="M3901 3004 c0 -11 3 -14 6 -6 3 7 2 16 -1 19 -3 4 -6 -2 -5 -13z"/>
<path d="M3268 2303 c45 -2 119 -2 165 0 45 1 8 3 -83 3 -91 0 -128 -2 -82 -3z"/>
<path d="M2078 2133 c6 -2 12 -18 12 -34 0 -16 5 -29 10 -29 6 0 10 13 10 29
0 16 6 32 13 34 6 3 -4 5 -23 5 -19 0 -29 -2 -22 -5z"/>
<path d="M2142 2108 c2 -28 7 -33 28 -33 22 0 25 5 27 35 1 33 1 33 -5 6 -10
-41 -32 -46 -32 -7 0 17 -5 31 -11 31 -6 0 -9 -14 -7 -32z"/>
<path d="M2220 2105 c0 -32 2 -35 29 -35 36 0 41 7 34 43 -4 22 -11 27 -34 27
-26 0 -29 -3 -29 -35z m45 15 c3 -5 -1 -10 -9 -10 -9 0 -16 5 -16 10 0 6 4 10
9 10 6 0 13 -4 16 -10z m5 -30 c0 -5 -7 -10 -15 -10 -8 0 -15 5 -15 10 0 6 7
10 15 10 8 0 15 -4 15 -10z"/>
<path d="M2317 2123 c-2 -10 -8 -26 -12 -36 -7 -17 -6 -18 14 -5 18 11 23 11
31 -2 17 -27 22 -2 5 29 -18 35 -30 39 -38 14z"/>
<path d="M2043 1960 c0 -25 2 -35 4 -22 2 12 2 32 0 45 -2 12 -4 2 -4 -23z"/>
<path d="M2083 1960 c0 -25 2 -35 4 -22 2 12 2 32 0 45 -2 12 -4 2 -4 -23z"/>
<path d="M2177 1984 c3 -8 -4 -25 -17 -40 l-23 -24 29 1 c23 0 25 2 11 8 -17
6 -17 8 -3 20 17 15 22 51 6 51 -5 0 -7 -7 -3 -16z"/>
<path d="M2252 1950 c0 -19 2 -27 5 -17 2 9 2 25 0 35 -3 9 -5 1 -5 -18z"/>
<path d="M2282 1973 c9 -3 19 -16 21 -31 l4 -27 2 27 c1 19 7 28 24 31 12 2 2
4 -23 4 -25 -1 -37 -2 -28 -4z"/>
<path d="M2352 1940 c0 -14 2 -19 5 -12 2 6 2 18 0 25 -3 6 -5 1 -5 -13z"/>
<path d="M3628 1933 c29 -2 74 -2 100 0 26 2 2 3 -53 3 -55 0 -76 -1 -47 -3z"/>
<path d="M3688 1153 c7 -3 16 -2 19 1 4 3 -2 6 -13 5 -11 0 -14 -3 -6 -6z"/>
<path d="M3778 1053 c7 -3 16 -2 19 1 4 3 -2 6 -13 5 -11 0 -14 -3 -6 -6z"/>
<path d="M2410 1046 c0 -2 9 -6 20 -9 11 -3 18 -1 14 4 -5 9 -34 13 -34 5z"/>
<path d="M3313 995 c0 -33 2 -45 4 -27 2 18 2 45 0 60 -2 15 -4 0 -4 -33z"/>
<path d="M3811 1034 c0 -11 3 -14 6 -6 3 7 2 16 -1 19 -3 4 -6 -2 -5 -13z"/>
<path d="M1763 985 c0 -33 2 -45 4 -27 2 18 2 45 0 60 -2 15 -4 0 -4 -33z"/>
<path d="M2463 980 c0 -30 2 -43 4 -27 2 15 2 39 0 55 -2 15 -4 2 -4 -28z"/>
</g>
</svg>
