<svg xmlns="http://www.w3.org/2000/svg" width="657" height="584" fill="none" viewBox="0 0 657 584">
  <g clip-path="url(#clip0)">
    <path stroke="#53596C" stroke-miterlimit="10" stroke-width=".9" d="M453.1 485.2l-83.4.3h-1.4v-10.7h84.8v10.4zM448 474.7v10.7M372.9 475.2v10.3M368.2 467.8l85.2.2M368.3 474.8v-8.4h85.1M312.3 486.3H281v-11.2h31.3v11.2zM310.4 475v11.1M282.7 475.5v10.8M281 468h31.4M281 475.1v-10.8h31.4M131.2 486.7l-71.9-.5h-1.2l.1-7.8 69.9.3h3.2l-.1 8zM126.9 478.6l-.2 8.2M68.2 441l.2 27.5M73.4 464.9h58.2M58.2 478.4v-81l4.7-.1M73.5 441.6l.3 22.9M63 486.3l.2-45M68.4 468.2l.2 17.8M59.3 237.4l-.4-112.2v-1.9h8.8V237.4h-8.4zM67.8 230.5h-8.7M67.3 129.5l-8.4.1M73.3 123.2v114.5M67.7 123.3l8.5-.1.1 114.5"/>
    <path stroke="#53596C" stroke-miterlimit="10" stroke-width=".39" d="M653.25 99.096l-55.691 1.011.053 2.9 55.691-1.011-.053-2.9z"/>
    <path stroke="#53596C" stroke-miterlimit="10" stroke-width=".39" d="M601.8 149.2h-.7v-2.8h.3c28-.5 51.2-21.1 50.8-45h.7c.4 24.1-22.9 45-51.1 45.6v2.2zM405.864 119.371l-.395 39.5 2 .02.395-39.5-2-.02zM371.9 156v.5h2v-.3c.2-19.8 14.6-36.5 31.6-36.3v-.5c-17.1-.1-31.7 16.6-32 36.6h-1.6zM370.12 268.39v37.5h1.9v-37.5h-1.9zM404.5 304.9v.5h-1.9v-.2c.1-18.9-13.5-34.8-29.6-34.9v-.5c16.3.1 30 16.1 30 35.1h1.5zM320.863 311.184l-44.493.808.042 2.3 44.492-.808-.041-2.3z"/>
    <path stroke="#53596C" stroke-miterlimit="10" stroke-width=".39" d="M279.7 351.2h-.6V349h.3c22.3-.4 40.9-16.9 40.5-36h.6c.4 19.3-18.3 35.9-40.8 36.5v1.7zM257.774 348.151l-42.998.451.023 2.199 42.998-.45-.023-2.2z"/>
    <path stroke="#53596C" stroke-miterlimit="10" stroke-width=".39" d="M217 312.9h-.5v2.2h.3c21.6-.2 40 15.2 40.2 33.7h.5c-.2-18.6-18.7-34.2-40.5-34.1v-1.8z"/>
    <path stroke="#53596C" stroke-miterlimit="10" stroke-width=".59" d="M168.4 103.9l-39.4.3M78.7 104.3l50-.1M217.7 103.9l-49.4.1M128.4 112.6h39.5M128.2 104.5l.7 41.1M128.9 145.6l39.5-.1M168.4 145.5l-.5-41.5M128.4 112.6L79 113M88.8 113l-.1 32.8M78.9 146l.1-41.4M128.9 145.6l-50 .4M128.2 104.4l.7 41.2M167.9 112.6l50-.5M208.1 112.3v32.8M167.9 104l.5 41.5M168.4 145.5l49.4-.6M217.8 144.9l-.1-40.9M189.191 161.468l-90.498.663.215 29.2 90.497-.664-.214-29.199zM280.3 238.9l-33.7.4v-72.2l33.9-.4-.2 72.2zM241.8 174.9c-4.1 0-7.4 2.4-7.4 5.6 0 3.2 3.2 5.7 7.3 5.7"/>
    <path stroke="#53596C" stroke-miterlimit="10" stroke-width=".59" d="M240.4 174.9c-4.1 0-7.4 2.4-7.4 5.6 0 3.2 3.2 5.7 7.3 5.7"/>
    <path stroke="#53596C" stroke-miterlimit="10" stroke-width=".59" d="M240.4 174c-4.7 0-8.5 2.8-8.6 6.4-.1 3.6 3.7 6.6 8.4 6.6"/>
    <path stroke="#53596C" stroke-miterlimit="10" stroke-width=".59" d="M240.4 174.6c-4.3 0-7.9 2.6-7.9 5.9 0 3.3 3.4 6 7.8 6.1M240.4 174l5.9.2M240.3 187.1h5.9"/>
    <path stroke="#53596C" stroke-miterlimit="10" stroke-width=".59" d="M244.2 174.6c-4.3 0-7.9 2.6-7.9 5.9 0 3.3 3.4 6 7.8 6.1M240.4 186.3h1.5M241.9 186.3l-.2.3M240.3 186.6h5.9M241.8 174.9l.2-.2M240.4 174.9h1.4M240.6 174.7h5.7M246.3 174.7v-.5M241.7 196.7c-4.1 0-7.4 2.4-7.4 5.6 0 3.2 3.2 5.7 7.3 5.7"/>
    <path stroke="#53596C" stroke-miterlimit="10" stroke-width=".59" d="M240.3 196.7c-4.1 0-7.4 2.4-7.4 5.6 0 3.2 3.2 5.7 7.3 5.7"/>
    <path stroke="#53596C" stroke-miterlimit="10" stroke-width=".59" d="M240.4 195.8c-4.7 0-8.5 2.8-8.6 6.4-.1 3.6 3.7 6.6 8.4 6.6"/>
    <path stroke="#53596C" stroke-miterlimit="10" stroke-width=".59" d="M240.3 196.3c-4.3 0-7.9 2.6-7.9 5.9 0 3.3 3.4 6 7.8 6.1M240.4 195.8l5.8.1M240.2 208.8l5.9.1"/>
    <path stroke="#53596C" stroke-miterlimit="10" stroke-width=".59" d="M244.1 196.3c-4.3 0-7.9 2.6-7.9 5.9 0 3.3 3.4 6 7.8 6.1M240.4 208h1.4M241.8 208l-.2.3M240.2 208.3h5.9M241.7 196.7l.2-.3M240.3 196.7h1.4M240.5 196.4h5.7M246.2 196.4v-.5M241.8 220.6c-4.1 0-7.4 2.4-7.4 5.6 0 3.2 3.2 5.7 7.3 5.7"/>
    <path stroke="#53596C" stroke-miterlimit="10" stroke-width=".59" d="M240.4 220.6c-4.1 0-7.4 2.4-7.4 5.6 0 3.2 3.2 5.7 7.3 5.7"/>
    <path stroke="#53596C" stroke-miterlimit="10" stroke-width=".59" d="M240.4 219.7c-4.7 0-8.5 2.8-8.6 6.4-.1 3.6 3.7 6.6 8.4 6.6"/>
    <path stroke="#53596C" stroke-miterlimit="10" stroke-width=".59" d="M240.4 220.2c-4.3 0-7.9 2.6-7.9 5.9 0 3.3 3.4 6 7.8 6.1M240.4 219.7l5.9.1M240.3 232.7l5.9.1"/>
    <path stroke="#53596C" stroke-miterlimit="10" stroke-width=".59" d="M244.1 220.2c-4.3 0-7.9 2.6-7.9 5.9 0 3.3 3.4 6 7.8 6.1M240.4 231.9h1.4M241.8 231.9l-.1.3M240.3 232.2h5.9M241.8 220.6l.1-.3M240.4 220.6h1.4M240.5 220.3l5.8.1M246.3 220.4v-.6M284.9 173c4 0 7.3 2.6 7.3 5.7s-3.3 5.6-7.4 5.6"/>
    <path stroke="#53596C" stroke-miterlimit="10" stroke-width=".59" d="M286.3 173c4 0 7.3 2.6 7.3 5.7s-3.3 5.6-7.4 5.6"/>
    <path stroke="#53596C" stroke-miterlimit="10" stroke-width=".59" d="M286.3 172.1c4.7 0 8.5 3 8.4 6.6-.1 3.6-3.9 6.5-8.5 6.4"/>
    <path stroke="#53596C" stroke-miterlimit="10" stroke-width=".59" d="M286.3 172.6c4.3 0 7.8 2.8 7.8 6.1s-3.6 6-7.9 5.9M286.3 172.1h-5.8M286.2 185.1h-5.9"/>
    <path stroke="#53596C" stroke-miterlimit="10" stroke-width=".59" d="M282.6 172.6c4.3 0 7.8 2.8 7.8 6.1s-3.6 6-7.9 5.9M286.1 184.3h-1.4M284.7 184.3l.1.3M286.2 184.6h-5.9M284.9 173l-.1-.3M286.3 173h-1.4M286.2 172.7h-5.7M280.5 172.7v-.6M284.7 194.6c4 0 7.3 2.6 7.3 5.7s-3.3 5.6-7.4 5.6"/>
    <path stroke="#53596C" stroke-miterlimit="10" stroke-width=".59" d="M286.1 194.6c4 0 7.3 2.6 7.3 5.7s-3.3 5.6-7.4 5.6"/>
    <path stroke="#53596C" stroke-miterlimit="10" stroke-width=".59" d="M286.1 193.7c4.7 0 8.5 3 8.4 6.6-.1 3.6-3.9 6.5-8.5 6.4"/>
    <path stroke="#53596C" stroke-miterlimit="10" stroke-width=".59" d="M286.1 194.2c4.3 0 7.8 2.8 7.8 6.1s-3.6 6-7.9 5.9M286.1 193.7l-5.8.1M286 206.8l-5.9-.1"/>
    <path stroke="#53596C" stroke-miterlimit="10" stroke-width=".59" d="M282.4 194.2c4.3 0 7.8 2.8 7.8 6.1s-3.6 6-7.9 5.9M285.9 206l-1.4-.1M284.5 205.9l.1.3M286 206.2h-5.9M284.7 194.6l-.1-.3M286.1 194.6h-1.4M286 194.3h-5.7M280.3 194.3v-.5M284.8 218.1c4 0 7.3 2.6 7.3 5.7s-3.3 5.6-7.4 5.6"/>
    <path stroke="#53596C" stroke-miterlimit="10" stroke-width=".59" d="M286.2 218.1c4 0 7.3 2.6 7.3 5.7s-3.3 5.6-7.4 5.6"/>
    <path stroke="#53596C" stroke-miterlimit="10" stroke-width=".59" d="M286.2 217.3c4.7 0 8.5 3 8.4 6.6-.1 3.6-3.9 6.5-8.5 6.4"/>
    <path stroke="#53596C" stroke-miterlimit="10" stroke-width=".59" d="M286.2 217.8c4.3 0 7.8 2.8 7.8 6.1s-3.6 6-7.9 5.9M286.2 217.3h-5.9M286.1 230.3l-5.9-.1"/>
    <path stroke="#53596C" stroke-miterlimit="10" stroke-width=".59" d="M282.5 217.7c4.3 0 7.8 2.8 7.8 6.1s-3.6 6-7.9 5.9M286 229.5h-1.4M284.6 229.5l.1.3M286.1 229.8l-5.9-.1M284.8 218.1l-.1-.2M286.2 218.1h-1.4M286.1 217.9l-5.8-.1M280.3 217.8v-.5M434.1 201.8l3.4.5 3.4 1M441.1 216.8l-3.3 1-3.5.8M434.3 218.6h-1.4M432.9 218.6h-.1v-.1h-.2l-.1-.1v-.4M432.5 218l-.6-3.9-.1-3.9-.1-4 .4-3.9M432.1 202.3v-.2l.2-.1.1-.1h.2v-.1M432.6 201.8l.7-.1.8.1M441.1 215.1l-1.7.7-1.8.4-1.8.1M435.8 216.3l-.2.1h-.1l-.2-.2-.2-.1v-.1l-.1-.1M435 215.9l-.5-2.3-.4-2.3v-2.4l.3-2.3.4-2.3"/>
    <path stroke="#53596C" stroke-miterlimit="10" stroke-width=".59" d="M434.8 204.3l.1-.1v-.1l.1-.1.2-.1H435.5M435.5 203.9h1.9l1.8.3 1.7.7"/>
    <path stroke="#53596C" stroke-miterlimit="10" stroke-width=".59" d="M432.1 202l.8.2.6.3.6.5.5.4.3.7.3.6.2.7M435.4 205.4l.2 4.8v4.7M435.6 214.9l-.1.7-.3.6-.3.6-.5.5-.6.5-.6.3-.7.3M432.8 218.5l-3.5.4-3.6.2"/>
    <path stroke="#53596C" stroke-miterlimit="10" stroke-width=".59" d="M425.8 219.1l-2.7-.1-2.7-.3-2.8-.5-2.6-.7-2.4-.9M412.6 216.6l-1.3-.7-.9-.8-.8-1-.6-1-.5-1.2v-1.3l.1-1.1.3-1.3.6-1.1.7-1 1.1-.8 1-.7M412.3 204.6l2.4-1 2.6-.8 2.7-.7 2.8-.4 2.6-.1"/>
    <path stroke="#53596C" stroke-miterlimit="10" stroke-width=".59" d="M425.4 201.6h3.5l3.5.3"/>
    <path stroke="#53596C" stroke-miterlimit="10" stroke-width=".59" d="M429.5 201.6h.2v.1h.1l.2.1.1.1v.4M430.1 202.3l.4 5.2.2 5.4-.2 5.3"/>
    <path stroke="#53596C" stroke-miterlimit="10" stroke-width=".59" d="M430.5 218.2V218.5l-.2.1-.1.2h-.2v.1h-.1"/>
    <path stroke="#53596C" stroke-miterlimit="10" stroke-width=".59" d="M432.8 218.5l-3.5.4-3.6.2"/>
    <path stroke="#53596C" stroke-miterlimit="10" stroke-width=".59" d="M425.8 219.1l-2.7-.1-2.7-.3-2.8-.5-2.6-.7-2.4-.9M412.6 216.6l-1.3-.7-.9-.8-.8-1-.6-1-.5-1.2v-1.3l.1-1.1.3-1.3.6-1.1.7-1 1.1-.8 1-.7M412.3 204.6l2.4-1 2.6-.8 2.7-.7 2.8-.4 2.6-.1"/>
    <path stroke="#53596C" stroke-miterlimit="10" stroke-width=".59" d="M425.4 201.6h3.5l3.5.3M434.1 201.8l3.4.5 3.4 1M441.1 216.8l-3.3 1-3.5.8M434.3 218.6h-1.4M432.9 218.6h-.1v-.1h-.2l-.1-.1v-.4M432.5 218l-.6-3.9-.1-3.9-.1-4 .4-3.9M432.1 202.3v-.2l.2-.1.1-.1h.2v-.1M432.6 201.8l.7-.1.8.1M437 208.9h.3l.3.1h.2l.1.2.3.1v.2l.2.3V210.4l-.1.3-.2.2-.1.1-.4.1-.1.2h-.8l-.1-.1-.3-.1-.2-.2-.1-.2-.2-.2v-.7l.1-.2v-.2l.3-.2.2-.2h.1l.3-.1h.2zM440.9 203.3l.2 13.5"/>
    <path stroke="#53596C" stroke-linecap="round" stroke-linejoin="round" stroke-width=".59" d="M441.5 244.6l-9.6.3M435.7 241.8l.1 6.4M433.6 243.3l.1 3.3M436.1 232.7l.3 24.7M426.2 232.8l9.8-.1M426.3 257.5l-.2-24.6M436.4 257.4l-10.1.1M424.6 259.1l17-.2M424.3 230.9l.3 28.2M441.5 230.9h-17.2M441.6 258.8l-.1-27.9"/>
    <path stroke="#53596C" stroke-linecap="round" stroke-linejoin="round" stroke-width=".47" d="M434.9 300.9v-41M434.9 300.9l43.6-.3M478.5 300.6l.1-41M478.6 259.6l-43.7.3M475.3 279.8l2.7.1M474.9 279h3.2M475.1 278.5h3.2M475.2 277.6l2.8.2M475.1 277.3l2.9-.3M475.1 276.4h3.1M475.1 275.6l2.8.1M475 275.2l3-.4M475 274.3l3.2.1M475.1 273.5l2.8.1M475.4 273l2.5-.2M475 272.3h3.1M475 271.5l2.8.1M475.3 271l2.7.1M474.9 270.2l3.2.1M475.2 269.7l2.9-.3M475.3 268.8l2.7.2M474.9 268.2l3.1-.1M475.1 267.6l3-.3M475.2 266.8l2.7.1M474.8 266.1h3.2M475.1 265.6h3.1M475.1 264.7l2.8.2M475.3 264.3l2.7-.3M475 263.5h3.1M475 262.7l2.8.1M475.2 280.6l2.6-.2M475 281.1h3.1M475.3 281.8l2.8.2M475.3 282.7l2.5-.3M475 283.1l3.2.1M475.4 283.9l2.7.1M475.1 284.3l2.8.2M475.1 285.2h3.1M475 286.1h3.2M475.2 286.4l2.8.2M475.1 287.3h3.2M475.1 288.2l2.9-.4M475.2 288.5l2.8.2M475.2 289.4h3.1M475.1 290.2l3-.3M475.3 290.6l2.7.1M475.2 291.4l2.8.2M475 291.9h3.1M475.3 292.7l2.8.1M475.3 293.5l2.6-.2M475.1 294h3.1M475 294.9l3.2-.1M475.4 295.5l2.5-.1M475.1 296.1l3.2-.1M475 297h3.2M475.2 297.3l2.8.2M475.3 262.1l2.6-.1M475 261.5h3.1M475 260.6l2.8.1M475.2 260.1l2.7-.2M475.2 298.2l3.1-.1M475.1 299h3.2M475.3 299.4l2.7.1M475.2 300.2l2.8.2M474.8 300.4l3.7.2M474.5 259.5l.3 40.9M478.6 259.6l-4.1-.1M478.5 300.6l.1-41M478.5 280.1l-9.7.1M473.6 282.9l-.1-5.5M477.5 284.7l-.1-9.2M466.225 282.712c1.436-.01 2.593-1.092 2.584-2.418-.009-1.325-1.18-2.392-2.616-2.382-1.436.009-2.593 1.091-2.584 2.417.009 1.325 1.18 2.392 2.616 2.383z"/>
    <path stroke="#53596C" stroke-miterlimit="10" stroke-width=".59" d="M159.9 298.7l-12.4 1.4h-24.9l-12.5-1.3m49.8-.1l-49.8.1-.1-1.4 49.8-.1.1 1.4z"/>
    <path stroke="#53596C" stroke-miterlimit="10" stroke-width=".59" d="M107.9 301.4l-.3-14.1 54.8-.1.4 13.9-54.9.3zM152.584 428.543l-67.7.677.334 33.4 67.7-.677-.334-33.4zM109.5 424.5a8.272 8.272 0 018.25-7.695A8.27 8.27 0 01126 424.5"/>
    <path stroke="#53596C" stroke-miterlimit="10" stroke-width=".59" d="M109.5 423a8.272 8.272 0 018.25-7.695A8.27 8.27 0 01126 423M108.2 423a9.57 9.57 0 0119.1-.1M108.9 423a8.86 8.86 0 0117.7-.1M108.2 423l.1 6.2M127.3 422.9l.1 6.2M108.9 426.9a8.86 8.86 0 0117.7-.1M126.2 423v1.5M126.2 424.5l.4-.1M126.6 422.9v6.2M109.5 424.5l-.4.1M109.5 423v1.5M109.1 423.1v6.1M109.1 429.2h-.8M76.2 357.8h94.4l-.1-50.2M104.6 308c-.4.6.2 49.8.2 49.8M480.2 428.5l-26-.1-68.1-.1.1-84.9 93.4.1M453.4 343.6l-.1 84.8M480.3 315.5h-20.7v22.7h20.7M480.2 433.2h-20v23.4l21.1.1M362.5 235.7l-31.3.2v-83.3l28.5-.2M362.4 180l-31.2.4"/>
    <path stroke="#53596C" stroke-miterlimit="10" stroke-width=".59" d="M354.4 205.7l.1-22.3-20.1.3.2 22h19.8z"/>
    <path stroke="#53596C" stroke-miterlimit="10" stroke-width=".59" d="M345.9 196.3a1.4 1.4 0 100-2.8 1.4 1.4 0 000 2.8zM350.4 196.4l12.5-.3-.1-2.9-12.4.4v2.8zM331.2 208.4h27.9M276 301.7l-.2-27.8 55.7-.5-.3-37.5M359.7 264.5h-28.2M340.1 218.2l9.4-.1M340 220.4h9.5M339.9 222.5l9.5-.1M339.9 224.7l9.4-.1M339.9 226.9h9.5"/>
    <path stroke="#53596C" stroke-linecap="round" stroke-linejoin="round" stroke-width=".59" d="M351.3 166.6l-12.6.1M345 172.9l.3-12.7M349.4 171.1l-8.8-9M340.5 171l9.3-8.9"/>
    <path stroke="#53596C" stroke-miterlimit="10" stroke-width=".59" d="M352.1 260.5a3.9 3.9 0 100-7.8 3.9 3.9 0 000 7.8zM338.5 247.4a3.9 3.9 0 100-7.8 3.9 3.9 0 000 7.8zM352.752 246.513c1.771-.774 2.598-2.796 1.847-4.517-.752-1.72-2.797-2.488-4.568-1.715-1.772.774-2.599 2.796-1.847 4.517.751 1.721 2.796 2.489 4.568 1.715zM338.4 260.6a3.5 3.5 0 100-7 3.5 3.5 0 000 7z"/>
    <path stroke="#53596C" stroke-linecap="round" stroke-linejoin="round" stroke-width=".59" d="M411.7 159.9l28.6-.3.2 27.8-28.5-.1-.3-27.4z"/>
    <path stroke="#53596C" stroke-linecap="round" stroke-linejoin="round" stroke-width=".59" d="M425.5 172.8l2.1-1.5-2.2-1.4-2.1 1.5 2.2 1.4zM425.7 178.1l2.1-1.5-2.2-1.4-2.1 1.5 2.2 1.4z"/>
    <path stroke="#00263E" stroke-miterlimit="10" stroke-width="3.91" d="M57.8 410.6l-49-46.8.2-59.2 55.1-54.5"/>
    <path stroke="#53596C" stroke-miterlimit="10" stroke-width=".53" d="M87.7 210.9l-20.9 19.2v-1.7l19.7-18.6 1.2 1.1z"/>
    <path stroke="#53596C" stroke-miterlimit="10" stroke-width=".53" d="M87.6 210.7c-1.4-1.8-2.7-3.3-3.9-4.8a36.178 36.178 0 00-6.4-5.9 19.106 19.106 0 00-10.4-4.2M65.2 230.4h1.7l-.1-2h-1.7l.1 2z"/>
    <path stroke="#53596C" stroke-miterlimit="10" stroke-width=".53" d="M65.5 196.7h1.6l-.1-2.3-1.6.2.1 2.1z"/>
    <path stroke="#53596C" stroke-linecap="round" stroke-linejoin="round" stroke-width=".39" d="M597.3 159.4H489.2"/>
    <path stroke="#53596C" stroke-linecap="round" stroke-linejoin="round" stroke-width=".29" d="M593 160.9l-3.6 26.7-3.4-26.7-4.4 26.7-3.5-26.7-5 26.7-2.8-26.7-3.5 26.7-2.7-26.7-3.8 26.7-3-26.7-4.5 26.7-2.3-26.7-4.9 26.7-1.8-26.7M543.8 160.9l-3.5 26.7-3.5-26.7-4.4 26.7-3.5-26.7-4.9 26.7-2.8-26.7-3.6 26.7-2.7-26.7-3.7 26.7-3.1-26.7-4.5 26.7-2.3-26.7-4.9 26.7-1.7-26.7M593 174.2h-99"/>
    <path stroke="#00263E" stroke-miterlimit="10" stroke-width="9.78" d="M129.6 97.3l470.9-1.8.1-5.3M601.5 148.3v45.9H484.6M484.3 466.4l-.3-309.8-37.6.5.7 97.3 34.4-.5"/>
    <path stroke="#00263E" stroke-miterlimit="10" stroke-width="23.48" d="M129.6 90.5H75M130.6 475.5l84.8-.2M215.4 475.3h65.7M312.3 475h55.9"/>
    <path stroke="#00263E" stroke-miterlimit="10" stroke-width="19.56" d="M67.7 78.9l.3 46.4M67.3 292.2l.1 39.5M67.4 330.2l-.9 48.7M453 476.1h36.3M66.2 396.5l.2 45.6M68.5 257.5l-.3-20"/>
    <path stroke="#00263E" stroke-miterlimit="10" stroke-width="6.65" d="M442.6 155.6l-36.4.6M371.7 155.2l-9.6.1.8 149.4M371.7 304.9l-92.9.2.1 7.1M279.7 350.9l.1 6.9-62.9 1 .3-8.4M404.5 304.8l79.6-.2M314.9 357.9l30.4.1 1.1 106.2M247 361.2l1.2 103.7M216.8 313.5l-.1-8-155.2.3"/>
    <path stroke="#53596C" stroke-linecap="round" stroke-linejoin="round" stroke-width=".34" d="M274.6 463.4V362.7"/>
    <path stroke="#53596C" stroke-linecap="round" stroke-linejoin="round" stroke-width=".26" d="M273.5 459.4l-21.8-3.3 21.8-3.2-21.8-4.2 21.8-3.2-21.8-4.6 21.8-2.6-21.8-3.3 21.8-2.5-21.8-3.5 21.8-2.9-21.8-4.2 21.8-2.1-21.8-4.6 21.8-1.6"/>
    <path stroke="#53596C" stroke-linecap="round" stroke-linejoin="round" stroke-width=".26" d="M273.5 413.6l-21.8-3.3 21.8-3.2-21.8-4.2 21.8-3.2-21.8-4.6 21.8-2.6-21.8-3.3 21.8-2.5-21.8-3.5 21.8-2.9-21.8-4.2 21.8-2.1-21.8-4.6 21.8-1.6M262.6 459.4v-92.2"/>
    <path stroke="#53596C" stroke-linecap="round" stroke-linejoin="round" stroke-width=".34" d="M317.1 362.2v100.7"/>
    <path stroke="#53596C" stroke-linecap="round" stroke-linejoin="round" stroke-width=".26" d="M318.2 366.2l21.7 3.3-21.7 3.2 21.7 4.1-21.7 3.2 21.7 4.7-21.7 2.6 21.7 3.3-21.7 2.5 21.7 3.5-21.7 2.9 21.7 4.2-21.7 2.1 21.7 4.6-21.7 1.6"/>
    <path stroke="#53596C" stroke-linecap="round" stroke-linejoin="round" stroke-width=".26" d="M318.2 412l21.7 3.3-21.7 3.2 21.7 4.1-21.7 3.2 21.7 4.7-21.7 2.6 21.7 3.3-21.7 2.5 21.7 3.5-21.7 2.9 21.7 4.2-21.7 2.1 21.7 4.6-21.7 1.6M329 366.2v92.2"/>
    <path stroke="#53596C" stroke-linecap="round" stroke-linejoin="round" stroke-width=".37" d="M214.8 361.9v100.7"/>
    <path stroke="#53596C" stroke-linecap="round" stroke-linejoin="round" stroke-width=".28" d="M216.1 366l25.8 3.3-25.8 3.2 25.8 4.1-25.8 3.2 25.8 4.7-25.8 2.6 25.8 3.3-25.8 2.5 25.8 3.5-25.8 2.8 25.8 4.2-25.8 2.2 25.8 4.5-25.8 1.7M216.1 411.8l25.8 3.3-25.8 3.2 25.8 4.1-25.8 3.2 25.8 4.7-25.8 2.6 25.8 3.3-25.8 2.5 25.8 3.5-25.8 2.8 25.8 4.2-25.8 2.2 25.8 4.5-25.8 1.7M228.9 366v92.2"/>
    <path stroke="#53596C" stroke-miterlimit="10" stroke-width=".51" d="M81.9 277.6l-18.8-17.7v-1.6L83 276.5l-1.1 1.1z"/>
    <path stroke="#53596C" stroke-miterlimit="10" stroke-width=".51" d="M63.2 291a18.302 18.302 0 009.9-4 32.75 32.75 0 006.1-5.6c1.1-1.4 2.4-2.9 3.7-4.6M61.5 259.9h1.6l.1-1.9h-1.6l-.1 1.9z"/>
    <path stroke="#53596C" stroke-miterlimit="10" stroke-width=".51" d="M61.8 292.1l1.5.1.1-2.1h-1.5l-.1 2z"/>
    <path stroke="#53596C" stroke-miterlimit="10" stroke-width=".26" d="M71.9 389l-9.6-9.1v-.8l10.2 9.3-.6.6z"/>
    <path stroke="#53596C" stroke-miterlimit="10" stroke-width=".26" d="M62.3 395.8a9.523 9.523 0 005.1-2 14.23 14.23 0 003.1-2.9c.6-.7 1.2-1.5 1.9-2.3M61.4 379.9h.9v-1h-.8l-.1 1z"/>
    <path stroke="#53596C" stroke-miterlimit="10" stroke-width=".26" d="M61.6 396.4l.8.1v-1.1h-.8v1z"/>
    <path stroke="#53596C" stroke-miterlimit="10" stroke-width=".53" d="M394.3 455.5l-18.7 19.7H374l19.1-20.9 1.2 1.2z"/>
    <path stroke="#53596C" stroke-miterlimit="10" stroke-width=".53" d="M408.3 475.1a19.103 19.103 0 00-4.2-10.4 36.181 36.181 0 00-5.9-6.4c-1.5-1.2-3-2.5-4.8-3.9M375.6 476.9v-1.7l-1.9-.1v1.7l1.9.1z"/>
    <path stroke="#53596C" stroke-miterlimit="10" stroke-width=".53" d="M409.5 476.6l.1-1.6-2.2-.1v1.6l2.1.1z"/>
    <path stroke="#53596C" stroke-miterlimit="10" stroke-width=".59" d="M60.2 257.5V292"/>
    <path stroke="#53596C" stroke-miterlimit="10" stroke-width=".51" d="M58.4 378.9v17.6"/>
    <g>
      <path fill="#00263E" d="M170.176 184.06c2.208.36 3.9 1.188 5.076 2.484 1.176 1.272 1.764 2.856 1.764 4.752 0 1.464-.384 2.82-1.152 4.068-.768 1.224-1.944 2.208-3.528 2.952-1.56.744-3.48 1.116-5.76 1.116-1.776 0-3.528-.228-5.256-.684-1.704-.48-3.156-1.152-4.356-2.016l2.268-4.464c.96.72 2.064 1.284 3.312 1.692 1.272.384 2.568.576 3.888.576 1.464 0 2.616-.276 3.456-.828.84-.576 1.26-1.38 1.26-2.412 0-2.064-1.572-3.096-4.716-3.096h-2.664v-3.852l5.184-5.868h-10.728v-4.68h17.64v3.78l-5.688 6.48zm17.821-.792c3.552 0 6.168.708 7.848 2.124 1.704 1.416 2.556 3.312 2.556 5.688 0 1.536-.384 2.94-1.152 4.212-.768 1.248-1.944 2.256-3.528 3.024-1.56.744-3.492 1.116-5.796 1.116-1.776 0-3.528-.228-5.256-.684-1.704-.48-3.156-1.152-4.356-2.016l2.304-4.464c.96.72 2.064 1.284 3.312 1.692 1.248.384 2.532.576 3.852.576 1.464 0 2.616-.288 3.456-.864.84-.576 1.26-1.38 1.26-2.412 0-1.08-.444-1.896-1.332-2.448-.864-.552-2.376-.828-4.536-.828h-6.444l1.296-14.184h15.372v4.68h-10.512l-.396 4.788h2.052zM145 209h67v1h-67zM151.156 220.458c.828 0 1.56.156 2.196.468a3.556 3.556 0 011.512 1.332c.36.564.54 1.224.54 1.98 0 .768-.186 1.446-.558 2.034a3.733 3.733 0 01-1.548 1.368c-.648.312-1.38.468-2.196.468-1.668 0-2.946-.546-3.834-1.638-.888-1.104-1.332-2.658-1.332-4.662 0-1.404.24-2.592.72-3.564s1.152-1.704 2.016-2.196c.864-.504 1.872-.756 3.024-.756 1.248 0 2.244.228 2.988.684l-.522 1.044c-.6-.396-1.416-.594-2.448-.594-1.392 0-2.484.444-3.276 1.332-.792.876-1.188 2.154-1.188 3.834 0 .3.018.642.054 1.026a3.351 3.351 0 011.494-1.584c.684-.384 1.47-.576 2.358-.576zm-.108 6.552c.912 0 1.65-.246 2.214-.738.576-.504.864-1.17.864-1.998 0-.828-.288-1.488-.864-1.98-.564-.492-1.332-.738-2.304-.738-.636 0-1.2.12-1.692.36-.48.24-.858.57-1.134.99-.276.42-.414.888-.414 1.404 0 .48.126.924.378 1.332.264.408.648.738 1.152.99.504.252 1.104.378 1.8.378zm9.781-11.718c1.668 0 2.946.552 3.834 1.656.888 1.092 1.332 2.64 1.332 4.644 0 1.404-.24 2.592-.72 3.564s-1.152 1.71-2.016 2.214c-.864.492-1.872.738-3.024.738-1.248 0-2.244-.228-2.988-.684l.522-1.044c.6.396 1.416.594 2.448.594 1.392 0 2.484-.438 3.276-1.314.792-.888 1.188-2.172 1.188-3.852 0-.312-.018-.654-.054-1.026a3.445 3.445 0 01-1.494 1.602c-.684.372-1.47.558-2.358.558-.828 0-1.566-.156-2.214-.468a3.62 3.62 0 01-1.494-1.314c-.36-.576-.54-1.242-.54-1.998 0-.768.186-1.446.558-2.034a3.635 3.635 0 011.53-1.35c.66-.324 1.398-.486 2.214-.486zm.144 6.552c.636 0 1.194-.12 1.674-.36.492-.24.876-.57 1.152-.99.276-.42.414-.888.414-1.404 0-.48-.132-.924-.396-1.332-.252-.408-.63-.738-1.134-.99-.504-.252-1.104-.378-1.8-.378-.912 0-1.656.252-2.232.756-.564.492-.846 1.152-.846 1.98 0 .828.282 1.488.846 1.98.576.492 1.35.738 2.322.738zm7.697 4.284c.276 0 .504.096.684.288.18.18.27.408.27.684 0 .144-.024.3-.072.468-.036.168-.096.36-.18.576l-.756 2.484h-.864l.612-2.61a.923.923 0 01-.468-.324.995.995 0 01-.18-.594c0-.276.09-.504.27-.684a.897.897 0 01.684-.288zm6.137-5.562c1.824 0 3.15.33 3.978.99.84.648 1.26 1.56 1.26 2.736 0 .732-.174 1.386-.522 1.962-.336.576-.846 1.032-1.53 1.368-.684.324-1.524.486-2.52.486-.9 0-1.758-.144-2.574-.432-.804-.3-1.452-.696-1.944-1.188l.63-1.026c.42.432.972.786 1.656 1.062a6.096 6.096 0 002.214.396c1.044 0 1.848-.234 2.412-.702.576-.468.864-1.092.864-1.872 0-.864-.324-1.518-.972-1.962-.636-.444-1.716-.666-3.24-.666h-2.682l.648-6.318h6.894v1.152h-5.76l-.432 4.014h1.62zM198.59 218.46c1.188 0 2.118.342 2.79 1.026.684.684 1.026 1.692 1.026 3.024V228h-1.278v-5.364c0-.984-.24-1.734-.72-2.25-.468-.516-1.134-.774-1.998-.774-.984 0-1.758.306-2.322.918-.564.6-.846 1.434-.846 2.502V228h-1.278v-5.364c0-.984-.24-1.734-.72-2.25-.468-.516-1.14-.774-2.016-.774-.972 0-1.746.306-2.322.918-.564.6-.846 1.434-.846 2.502V228h-1.278v-9.468h1.224v1.728a3.415 3.415 0 011.404-1.332c.6-.312 1.29-.468 2.07-.468.792 0 1.476.168 2.052.504.588.336 1.026.834 1.314 1.494A3.645 3.645 0 01196.34 219c.66-.36 1.41-.54 2.25-.54zm12.268 2.844v.81h-5.904v-.63l3.42-3.024c.444-.396.744-.72.9-.972.168-.264.252-.534.252-.81 0-.372-.168-.678-.504-.918-.324-.24-.822-.36-1.494-.36-.468 0-.894.072-1.278.216a2.375 2.375 0 00-.918.612l-.666-.522c.624-.756 1.596-1.134 2.916-1.134.936 0 1.656.192 2.16.576.504.384.756.876.756 1.476 0 .384-.102.75-.306 1.098-.192.336-.558.744-1.098 1.224l-2.664 2.358h4.428zM530.765 126.7v1.3h-5.42v-7h5.29v1.3h-3.68v1.52h3.25v1.26h-3.25v1.62h3.81zm3.989 1.42c-.553 0-1.09-.073-1.61-.22-.513-.153-.926-.35-1.24-.59l.55-1.22c.3.22.657.397 1.07.53.414.133.827.2 1.24.2.46 0 .8-.067 1.02-.2.22-.14.33-.323.33-.55a.5.5 0 00-.2-.41 1.372 1.372 0 00-.5-.27c-.2-.067-.473-.14-.82-.22-.533-.127-.97-.253-1.31-.38a2.172 2.172 0 01-.88-.61c-.24-.28-.36-.653-.36-1.12 0-.407.11-.773.33-1.1.22-.333.55-.597.99-.79.447-.193.99-.29 1.63-.29.447 0 .884.053 1.31.16.427.107.8.26 1.12.46l-.5 1.23c-.646-.367-1.293-.55-1.94-.55-.453 0-.79.073-1.01.22-.213.147-.32.34-.32.58 0 .24.124.42.37.54.254.113.637.227 1.15.34.534.127.97.253 1.31.38.34.127.63.327.87.6.247.273.37.643.37 1.11 0 .4-.113.767-.34 1.1-.22.327-.553.587-1 .78-.446.193-.99.29-1.63.29zm4.477-7.12h1.62v7h-1.62v-7zm6.231 4.25l-.94.98V128h-1.61v-7h1.61v3.27l3.1-3.27h1.8l-2.9 3.12 3.07 3.88h-1.89l-2.24-2.75zM524.764 140.792h-1.68V143h-.864v-2.208h-4.74v-.624l4.452-5.568h.96l-4.296 5.424h3.648v-1.944h.84v1.944h1.68v.768zm1.688.96c.184 0 .336.064.456.192.12.12.18.272.18.456 0 .096-.016.2-.048.312-.024.112-.064.24-.12.384l-.504 1.656h-.576l.408-1.74a.615.615 0 01-.312-.216.663.663 0 01-.12-.396c0-.184.06-.336.18-.456a.598.598 0 01.456-.192zm8.871-.96h-1.68V143h-.864v-2.208h-4.74v-.624l4.452-5.568h.96l-4.296 5.424h3.648v-1.944h.84v1.944h1.68v.768zM548.06 136.64c.792 0 1.412.228 1.86.684.456.456.684 1.128.684 2.016V143h-.852v-3.576c0-.656-.16-1.156-.48-1.5-.312-.344-.756-.516-1.332-.516-.656 0-1.172.204-1.548.612-.376.4-.564.956-.564 1.668V143h-.852v-3.576c0-.656-.16-1.156-.48-1.5-.312-.344-.76-.516-1.344-.516-.648 0-1.164.204-1.548.612-.376.4-.564.956-.564 1.668V143h-.852v-6.312h.816v1.152c.224-.384.536-.68.936-.888.4-.208.86-.312 1.38-.312.528 0 .984.112 1.368.336.392.224.684.556.876.996a2.43 2.43 0 01.996-.972c.44-.24.94-.36 1.5-.36zm8.179 1.896v.54h-3.936v-.42l2.28-2.016c.296-.264.496-.48.6-.648a.995.995 0 00.168-.54c0-.248-.112-.452-.336-.612-.216-.16-.548-.24-.996-.24a2.41 2.41 0 00-.852.144 1.583 1.583 0 00-.612.408l-.444-.348c.416-.504 1.064-.756 1.944-.756.624 0 1.104.128 1.44.384.336.256.504.584.504.984 0 .256-.068.5-.204.732-.128.224-.372.496-.732.816l-1.776 1.572h2.952zM167.385 256.25l-.94.98V259h-1.61v-7h1.61v3.27l3.1-3.27h1.8l-2.9 3.12 3.07 3.88h-1.89l-2.24-2.75zm8.389 2.87c-.727 0-1.384-.157-1.97-.47a3.538 3.538 0 01-1.37-1.29 3.585 3.585 0 01-.49-1.86c0-.687.163-1.303.49-1.85a3.52 3.52 0 011.37-1.3c.586-.313 1.243-.47 1.97-.47.726 0 1.38.157 1.96.47.58.313 1.036.747 1.37 1.3.333.547.5 1.163.5 1.85s-.167 1.307-.5 1.86c-.334.547-.79.977-1.37 1.29-.58.313-1.234.47-1.96.47zm0-1.38c.413 0 .786-.093 1.12-.28.333-.193.593-.46.78-.8.193-.34.29-.727.29-1.16 0-.433-.097-.82-.29-1.16a1.983 1.983 0 00-.78-.79 2.197 2.197 0 00-1.12-.29c-.414 0-.787.097-1.12.29a2.04 2.04 0 00-.79.79c-.187.34-.28.727-.28 1.16 0 .433.093.82.28 1.16.193.34.456.607.79.8.333.187.706.28 1.12.28zm-1.01-6.36a.696.696 0 01-.5-.19.675.675 0 01-.2-.5c0-.2.066-.363.2-.49a.68.68 0 01.5-.2c.2 0 .363.067.49.2.133.127.2.29.2.49a.68.68 0 01-.2.5.662.662 0 01-.49.19zm2.02 0a.696.696 0 01-.5-.19.696.696 0 01-.19-.5c0-.2.063-.363.19-.49a.68.68 0 01.5-.2c.2 0 .366.067.5.2.133.127.2.29.2.49a.68.68 0 01-.2.5.697.697 0 01-.5.19zm7.827 7.74c-.727 0-1.383-.157-1.97-.47a3.538 3.538 0 01-1.37-1.29 3.585 3.585 0 01-.49-1.86c0-.687.163-1.303.49-1.85a3.52 3.52 0 011.37-1.3c.587-.313 1.243-.47 1.97-.47.727 0 1.38.157 1.96.47a3.52 3.52 0 011.87 3.15c0 .687-.167 1.307-.5 1.86-.333.547-.79.977-1.37 1.29-.58.313-1.233.47-1.96.47zm0-1.38c.413 0 .787-.093 1.12-.28.333-.193.593-.46.78-.8.193-.34.29-.727.29-1.16 0-.433-.097-.82-.29-1.16a1.983 1.983 0 00-.78-.79 2.195 2.195 0 00-1.12-.29c-.413 0-.787.097-1.12.29-.333.187-.597.45-.79.79-.187.34-.28.727-.28 1.16 0 .433.093.82.28 1.16.193.34.457.607.79.8.333.187.707.28 1.12.28zm-1.01-6.36a.696.696 0 01-.5-.19.68.68 0 01-.2-.5c0-.2.067-.363.2-.49a.68.68 0 01.5-.2c.2 0 .363.067.49.2.133.127.2.29.2.49a.68.68 0 01-.2.5.662.662 0 01-.49.19zm2.02 0a.696.696 0 01-.5-.19.696.696 0 01-.19-.5c0-.2.063-.363.19-.49a.68.68 0 01.5-.2c.2 0 .367.067.5.2.133.127.2.29.2.49a.68.68 0 01-.2.5.696.696 0 01-.5.19zm6.988 4.87l-.94.98V259h-1.61v-7h1.61v3.27l3.1-3.27h1.8l-2.9 3.12 3.07 3.88h-1.89l-2.24-2.75zm4.581-.69h2.83v1.25h-2.83v-1.25zm9.987 2.14v1.3h-5.42v-7h5.29v1.3h-3.68v1.52h3.25v1.26h-3.25v1.62h3.81zm1.689-5.7h1.62v5.68h3.51V259h-5.13v-7zm9.457 7.12c-1 0-1.78-.277-2.34-.83-.553-.553-.83-1.343-.83-2.37V252h1.62v3.86c0 1.253.52 1.88 1.56 1.88.507 0 .894-.15 1.16-.45.267-.307.4-.783.4-1.43V252h1.6v3.92c0 1.027-.28 1.817-.84 2.37-.553.553-1.33.83-2.33.83zm6.504-5.8h-2.24V252h6.1v1.32h-2.24V259h-1.62v-5.68zm8.124 5.8c-1 0-1.78-.277-2.34-.83-.553-.553-.83-1.343-.83-2.37V252h1.62v3.86c0 1.253.52 1.88 1.56 1.88.507 0 .894-.15 1.16-.45.267-.307.4-.783.4-1.43V252h1.6v3.92c0 1.027-.28 1.817-.84 2.37-.553.553-1.33.83-2.33.83zm10.311-3.76c.4.127.714.34.94.64.227.293.34.657.34 1.09 0 .613-.24 1.087-.72 1.42-.473.327-1.166.49-2.08.49h-3.62v-7h3.42c.854 0 1.507.163 1.96.49.46.327.69.77.69 1.33 0 .34-.083.643-.25.91-.16.267-.386.477-.68.63zm-3.53-2.14v1.65h1.61c.4 0 .704-.07.91-.21.207-.14.31-.347.31-.62s-.103-.477-.31-.61c-.206-.14-.51-.21-.91-.21h-1.61zm1.89 4.56c.427 0 .747-.07.96-.21.22-.14.33-.357.33-.65 0-.58-.43-.87-1.29-.87h-1.89v1.73h1.89zm9.157-.28h-3.25l-.62 1.5h-1.66l3.12-7h1.6l3.13 7h-1.7l-.62-1.5zm-.51-1.23l-1.11-2.68-1.11 2.68h2.22zM190.48 269.2c.88.048 1.548.288 2.004.72.464.424.696.98.696 1.668 0 .48-.116.908-.348 1.284-.232.368-.576.66-1.032.876-.456.216-1.012.324-1.668.324a5.154 5.154 0 01-1.728-.288c-.536-.2-.968-.464-1.296-.792l.42-.684c.28.288.652.524 1.116.708.464.176.96.264 1.488.264.688 0 1.22-.148 1.596-.444.376-.304.564-.72.564-1.248 0-.52-.188-.928-.564-1.224-.376-.296-.944-.444-1.704-.444h-.6v-.636l2.328-2.916h-4.296v-.768h5.4v.612l-2.376 2.988zm6.245-3.6v8.4h-.864v-7.632h-1.98v-.768h2.844zm2.668 7.152c.184 0 .336.064.456.192.12.12.18.272.18.456 0 .096-.016.2-.048.312-.024.112-.064.24-.12.384l-.504 1.656h-.576l.408-1.74a.615.615 0 01-.312-.216.663.663 0 01-.12-.396c0-.184.06-.336.18-.456a.598.598 0 01.456-.192zm5.102 1.32a3.048 3.048 0 01-1.74-.516c-.504-.344-.9-.836-1.188-1.476-.28-.648-.42-1.408-.42-2.28 0-.872.14-1.628.42-2.268.288-.648.684-1.144 1.188-1.488a3.048 3.048 0 011.74-.516c.648 0 1.224.172 1.728.516.512.344.912.84 1.2 1.488.288.64.432 1.396.432 2.268 0 .872-.144 1.632-.432 2.28-.288.64-.688 1.132-1.2 1.476a2.992 2.992 0 01-1.728.516zm0-.792c.488 0 .916-.136 1.284-.408.376-.272.668-.668.876-1.188.208-.52.312-1.148.312-1.884s-.104-1.364-.312-1.884c-.208-.52-.5-.916-.876-1.188a2.102 2.102 0 00-1.284-.408c-.488 0-.92.136-1.296.408-.368.272-.656.668-.864 1.188-.208.52-.312 1.148-.312 1.884s.104 1.364.312 1.884c.208.52.496.916.864 1.188.376.272.808.408 1.296.408zM221.06 267.64c.792 0 1.412.228 1.86.684.456.456.684 1.128.684 2.016V274h-.852v-3.576c0-.656-.16-1.156-.48-1.5-.312-.344-.756-.516-1.332-.516-.656 0-1.172.204-1.548.612-.376.4-.564.956-.564 1.668V274h-.852v-3.576c0-.656-.16-1.156-.48-1.5-.312-.344-.76-.516-1.344-.516-.648 0-1.164.204-1.548.612-.376.4-.564.956-.564 1.668V274h-.852v-6.312h.816v1.152c.224-.384.536-.68.936-.888.4-.208.86-.312 1.38-.312.528 0 .984.112 1.368.336.392.224.684.556.876.996a2.43 2.43 0 01.996-.972c.44-.24.94-.36 1.5-.36zm8.179 1.896v.54h-3.936v-.42l2.28-2.016c.296-.264.496-.48.6-.648a.995.995 0 00.168-.54c0-.248-.112-.452-.336-.612-.216-.16-.548-.24-.996-.24a2.41 2.41 0 00-.852.144 1.583 1.583 0 00-.612.408l-.444-.348c.416-.504 1.064-.756 1.944-.756.624 0 1.104.128 1.44.384.336.256.504.584.504.984 0 .256-.068.5-.204.732-.128.224-.372.496-.732.816l-1.776 1.572h2.952z"/>
      <g>
        <path fill="#00263E" d="M406.556 368.32h-2.24V367h6.1v1.32h-2.24V374h-1.62v-5.68zm8.124 5.8c-1 0-1.78-.277-2.34-.83-.553-.553-.83-1.343-.83-2.37V367h1.62v3.86c0 1.253.52 1.88 1.56 1.88.507 0 .894-.15 1.16-.45.267-.307.4-.783.4-1.43V367h1.6v3.92c0 1.027-.28 1.817-.84 2.37-.553.553-1.33.83-2.33.83zm10.311-3.76c.4.127.714.34.94.64.227.293.34.657.34 1.09 0 .613-.24 1.087-.72 1.42-.473.327-1.166.49-2.08.49h-3.62v-7h3.42c.854 0 1.507.163 1.96.49.46.327.69.77.69 1.33 0 .34-.083.643-.25.91-.16.267-.386.477-.68.63zm-3.53-2.14v1.65h1.61c.4 0 .704-.07.91-.21.207-.14.31-.347.31-.62s-.103-.477-.31-.61c-.206-.14-.51-.21-.91-.21h-1.61zm1.89 4.56c.427 0 .747-.07.96-.21.22-.14.33-.357.33-.65 0-.58-.43-.87-1.29-.87h-1.89v1.73h1.89zm9.157-.28h-3.25l-.62 1.5h-1.66l3.12-7h1.6l3.13 7h-1.7l-.62-1.5zm-.51-1.23l-1.11-2.68-1.11 2.68h2.22zM400.952 380.6v8.4h-.864v-7.632h-1.98v-.768h2.844zm5.488 3.372c.552 0 1.04.104 1.464.312a2.37 2.37 0 011.008.888c.24.376.36.816.36 1.32 0 .512-.124.964-.372 1.356a2.489 2.489 0 01-1.032.912c-.432.208-.92.312-1.464.312-1.112 0-1.964-.364-2.556-1.092-.592-.736-.888-1.772-.888-3.108 0-.936.16-1.728.48-2.376.32-.648.768-1.136 1.344-1.464.576-.336 1.248-.504 2.016-.504.832 0 1.496.152 1.992.456l-.348.696c-.4-.264-.944-.396-1.632-.396-.928 0-1.656.296-2.184.888-.528.584-.792 1.436-.792 2.556 0 .2.012.428.036.684.208-.456.54-.808.996-1.056.456-.256.98-.384 1.572-.384zm-.072 4.368c.608 0 1.1-.164 1.476-.492.384-.336.576-.78.576-1.332s-.192-.992-.576-1.32c-.376-.328-.888-.492-1.536-.492-.424 0-.8.08-1.128.24a1.9 1.9 0 00-.756.66c-.184.28-.276.592-.276.936 0 .32.084.616.252.888.176.272.432.492.768.66.336.168.736.252 1.2.252zm4.682-.588c.184 0 .336.064.456.192.12.12.18.272.18.456 0 .096-.016.2-.048.312-.024.112-.064.24-.12.384l-.504 1.656h-.576l.408-1.74a.615.615 0 01-.312-.216.663.663 0 01-.12-.396c0-.184.06-.336.18-.456a.598.598 0 01.456-.192zm4.856-3.552c.88.048 1.548.288 2.004.72.464.424.696.98.696 1.668 0 .48-.116.908-.348 1.284-.232.368-.576.66-1.032.876-.456.216-1.012.324-1.668.324a5.154 5.154 0 01-1.728-.288c-.536-.2-.968-.464-1.296-.792l.42-.684c.28.288.652.524 1.116.708.464.176.96.264 1.488.264.688 0 1.22-.148 1.596-.444.376-.304.564-.72.564-1.248 0-.52-.188-.928-.564-1.224-.376-.296-.944-.444-1.704-.444h-.6v-.636l2.328-2.916h-4.296v-.768h5.4v.612l-2.376 2.988zM432.06 382.64c.792 0 1.412.228 1.86.684.456.456.684 1.128.684 2.016V389h-.852v-3.576c0-.656-.16-1.156-.48-1.5-.312-.344-.756-.516-1.332-.516-.656 0-1.172.204-1.548.612-.376.4-.564.956-.564 1.668V389h-.852v-3.576c0-.656-.16-1.156-.48-1.5-.312-.344-.76-.516-1.344-.516-.648 0-1.164.204-1.548.612-.376.4-.564.956-.564 1.668V389h-.852v-6.312h.816v1.152c.224-.384.536-.68.936-.888.4-.208.86-.312 1.38-.312.528 0 .984.112 1.368.336.392.224.684.556.876.996a2.43 2.43 0 01.996-.972c.44-.24.94-.36 1.5-.36zm8.179 1.896v.54h-3.936v-.42l2.28-2.016c.296-.264.496-.48.6-.648a.995.995 0 00.168-.54c0-.248-.112-.452-.336-.612-.216-.16-.548-.24-.996-.24a2.41 2.41 0 00-.852.144 1.583 1.583 0 00-.612.408l-.444-.348c.416-.504 1.064-.756 1.944-.756.624 0 1.104.128 1.44.384.336.256.504.584.504.984 0 .256-.068.5-.204.732-.128.224-.372.496-.732.816l-1.776 1.572h2.952z"/>
      </g>
      <g>
        <path fill="#00263E" d="M23.223 327l-1.35-1.95h-1.49V327h-1.62v-7h3.03c.62 0 1.157.103 1.61.31.46.207.814.5 1.06.88.247.38.37.83.37 1.35 0 .52-.127.97-.38 1.35-.247.373-.6.66-1.06.86l1.57 2.25h-1.74zm-.03-4.46c0-.393-.127-.693-.38-.9-.253-.213-.623-.32-1.11-.32h-1.32v2.44h1.32c.487 0 .857-.107 1.11-.32.254-.213.38-.513.38-.9zm6.714 4.58c-.727 0-1.384-.157-1.97-.47a3.541 3.541 0 01-1.37-1.29 3.588 3.588 0 01-.49-1.86c0-.687.163-1.303.49-1.85.333-.553.79-.987 1.37-1.3.586-.313 1.243-.47 1.97-.47.726 0 1.38.157 1.96.47a3.522 3.522 0 011.87 3.15c0 .687-.167 1.307-.5 1.86a3.54 3.54 0 01-1.37 1.29c-.58.313-1.234.47-1.96.47zm0-1.38c.413 0 .786-.093 1.12-.28.333-.193.593-.46.78-.8.193-.34.29-.727.29-1.16 0-.433-.097-.82-.29-1.16a1.978 1.978 0 00-.78-.79 2.194 2.194 0 00-1.12-.29c-.414 0-.787.097-1.12.29-.334.187-.597.45-.79.79-.187.34-.28.727-.28 1.16 0 .433.093.82.28 1.16.193.34.456.607.79.8.333.187.706.28 1.12.28zm.75-6.28c-.18 0-.34-.033-.48-.1a4.44 4.44 0 01-.45-.29 2.333 2.333 0 00-.27-.18.386.386 0 00-.2-.06c-.14 0-.254.05-.34.15-.087.093-.134.23-.14.41h-.79c.013-.447.123-.8.33-1.06.213-.267.493-.4.84-.4.173 0 .326.037.46.11.14.067.296.163.47.29.106.08.193.14.26.18a.432.432 0 00.54-.08.598.598 0 00.15-.4h.79c-.014.433-.127.78-.34 1.04-.207.26-.484.39-.83.39zm4.697.54h3.18c.76 0 1.43.147 2.01.44.587.287 1.04.693 1.36 1.22.327.527.49 1.14.49 1.84 0 .7-.163 1.313-.49 1.84-.32.527-.773.937-1.36 1.23-.58.287-1.25.43-2.01.43h-3.18v-7zm3.1 5.67c.7 0 1.257-.193 1.67-.58.42-.393.63-.923.63-1.59s-.21-1.193-.63-1.58c-.413-.393-.97-.59-1.67-.59h-1.48v4.34h1.48zm8.672 1.45c-1 0-1.78-.277-2.34-.83-.553-.553-.83-1.343-.83-2.37V320h1.62v3.86c0 1.253.52 1.88 1.56 1.88.507 0 .893-.15 1.16-.45.267-.307.4-.783.4-1.43V320h1.6v3.92c0 1.027-.28 1.817-.84 2.37-.553.553-1.33.83-2.33.83zM22.764 339.792h-1.68V342h-.864v-2.208h-4.74v-.624l4.452-5.568h.96l-4.296 5.424h3.648v-1.944h.84v1.944h1.68v.768zm1.688.96c.184 0 .336.064.456.192.12.12.18.272.18.456 0 .096-.016.2-.048.312-.024.112-.064.24-.12.384l-.504 1.656h-.576l.408-1.74a.615.615 0 01-.312-.216.663.663 0 01-.12-.396c0-.184.06-.336.18-.456a.598.598 0 01.456-.192zm7.736.48V342h-5.892v-.612l3.492-3.42c.44-.432.736-.804.888-1.116.16-.32.24-.64.24-.96 0-.496-.172-.88-.516-1.152-.336-.28-.82-.42-1.452-.42-.984 0-1.748.312-2.292.936l-.612-.528a3.23 3.23 0 011.248-.888c.512-.208 1.088-.312 1.728-.312.856 0 1.532.204 2.028.612.504.4.756.952.756 1.656 0 .432-.096.848-.288 1.248-.192.4-.556.86-1.092 1.38l-2.856 2.808h4.62zM45.06 335.64c.792 0 1.412.228 1.86.684.456.456.684 1.128.684 2.016V342h-.852v-3.576c0-.656-.16-1.156-.48-1.5-.312-.344-.756-.516-1.332-.516-.656 0-1.172.204-1.548.612-.376.4-.564.956-.564 1.668V342h-.852v-3.576c0-.656-.16-1.156-.48-1.5-.312-.344-.76-.516-1.344-.516-.648 0-1.164.204-1.548.612-.376.4-.564.956-.564 1.668V342h-.852v-6.312h.816v1.152c.224-.384.536-.68.936-.888.4-.208.86-.312 1.38-.312.528 0 .984.112 1.368.336.392.224.684.556.876.996a2.43 2.43 0 01.996-.972c.44-.24.94-.36 1.5-.36zm8.179 1.896v.54h-3.936v-.42l2.28-2.016c.296-.264.496-.48.6-.648a.995.995 0 00.168-.54c0-.248-.112-.452-.336-.612-.216-.16-.548-.24-.996-.24a2.41 2.41 0 00-.852.144 1.583 1.583 0 00-.612.408l-.444-.348c.416-.504 1.064-.756 1.944-.756.624 0 1.104.128 1.44.384.336.256.504.584.504.984 0 .256-.068.5-.204.732-.128.224-.372.496-.732.816l-1.776 1.572h2.952z"/>
      </g>
      <g>
        <path fill="#00263E" d="M284.967 395.39h1.48v2.84c-.38.287-.82.507-1.32.66-.5.153-1.003.23-1.51.23-.727 0-1.38-.153-1.96-.46a3.538 3.538 0 01-1.37-1.29c-.327-.553-.49-1.177-.49-1.87 0-.693.163-1.313.49-1.86a3.434 3.434 0 011.38-1.29c.587-.313 1.247-.47 1.98-.47.613 0 1.17.103 1.67.31.5.207.92.507 1.26.9l-1.04.96c-.5-.527-1.103-.79-1.81-.79-.447 0-.843.093-1.19.28-.347.187-.617.45-.81.79-.193.34-.29.73-.29 1.17 0 .433.097.82.29 1.16.193.34.46.607.8.8.347.187.74.28 1.18.28.467 0 .887-.1 1.26-.3v-2.05zm7.995 2.11h-3.25l-.62 1.5h-1.66l3.12-7h1.6l3.13 7h-1.7l-.62-1.5zm-.51-1.23l-1.11-2.68-1.11 2.68h2.22zm8.416 2.73l-1.35-1.95h-1.49V399h-1.62v-7h3.03c.62 0 1.157.103 1.61.31.46.207.813.5 1.06.88.247.38.37.83.37 1.35 0 .52-.127.97-.38 1.35-.247.373-.6.66-1.06.86l1.57 2.25h-1.74zm-.03-4.46c0-.393-.127-.693-.38-.9-.253-.213-.623-.32-1.11-.32h-1.32v2.44h1.32c.487 0 .857-.107 1.11-.32.253-.213.38-.513.38-.9zm3.323-2.54h3.18c.76 0 1.43.147 2.01.44.587.287 1.04.693 1.36 1.22.327.527.49 1.14.49 1.84 0 .7-.163 1.313-.49 1.84-.32.527-.773.937-1.36 1.23-.58.287-1.25.43-2.01.43h-3.18v-7zm3.1 5.67c.7 0 1.257-.193 1.67-.58.42-.393.63-.923.63-1.59s-.21-1.193-.63-1.58c-.413-.393-.97-.59-1.67-.59h-1.48v4.34h1.48z"/>
      </g>
      <g>
        <path fill="#00263E" d="M140.556 376.32h-2.24V375h6.1v1.32h-2.24V382h-1.62v-5.68zm8.124 5.8c-1 0-1.78-.277-2.34-.83-.553-.553-.83-1.343-.83-2.37V375h1.62v3.86c0 1.253.52 1.88 1.56 1.88.507 0 .894-.15 1.16-.45.267-.307.4-.783.4-1.43V375h1.6v3.92c0 1.027-.28 1.817-.84 2.37-.553.553-1.33.83-2.33.83zm10.311-3.76c.4.127.714.34.94.64.227.293.34.657.34 1.09 0 .613-.24 1.087-.72 1.42-.473.327-1.166.49-2.08.49h-3.62v-7h3.42c.854 0 1.507.163 1.96.49.46.327.69.77.69 1.33 0 .34-.083.643-.25.91-.16.267-.386.477-.68.63zm-3.53-2.14v1.65h1.61c.4 0 .704-.07.91-.21.207-.14.31-.347.31-.62s-.103-.477-.31-.61c-.206-.14-.51-.21-.91-.21h-1.61zm1.89 4.56c.427 0 .747-.07.96-.21.22-.14.33-.357.33-.65 0-.58-.43-.87-1.29-.87h-1.89v1.73h1.89zm9.157-.28h-3.25l-.62 1.5h-1.66l3.12-7h1.6l3.13 7h-1.7l-.62-1.5zm-.51-1.23l-1.11-2.68-1.11 2.68h2.22zM134.952 388.6v8.4h-.864v-7.632h-1.98v-.768h2.844zm7.744 7.632V397h-5.892v-.612l3.492-3.42c.44-.432.736-.804.888-1.116.16-.32.24-.64.24-.96 0-.496-.172-.88-.516-1.152-.336-.28-.82-.42-1.452-.42-.984 0-1.748.312-2.292.936l-.612-.528a3.23 3.23 0 011.248-.888c.512-.208 1.088-.312 1.728-.312.856 0 1.532.204 2.028.612.504.4.756.952.756 1.656 0 .432-.096.848-.288 1.248-.192.4-.556.86-1.092 1.38l-2.856 2.808h4.62zm1.861-.48c.184 0 .336.064.456.192.12.12.18.272.18.456 0 .096-.016.2-.048.312-.024.112-.064.24-.12.384l-.504 1.656h-.576l.408-1.74a.615.615 0 01-.312-.216.663.663 0 01-.12-.396c0-.184.06-.336.18-.456a.598.598 0 01.456-.192zm5.103 1.32a3.048 3.048 0 01-1.74-.516c-.504-.344-.9-.836-1.188-1.476-.28-.648-.42-1.408-.42-2.28 0-.872.14-1.628.42-2.268.288-.648.684-1.144 1.188-1.488a3.048 3.048 0 011.74-.516c.648 0 1.224.172 1.728.516.512.344.912.84 1.2 1.488.288.64.432 1.396.432 2.268 0 .872-.144 1.632-.432 2.28-.288.64-.688 1.132-1.2 1.476a2.992 2.992 0 01-1.728.516zm0-.792c.488 0 .916-.136 1.284-.408.376-.272.668-.668.876-1.188.208-.52.312-1.148.312-1.884s-.104-1.364-.312-1.884c-.208-.52-.5-.916-.876-1.188a2.102 2.102 0 00-1.284-.408c-.488 0-.92.136-1.296.408-.368.272-.656.668-.864 1.188-.208.52-.312 1.148-.312 1.884s.104 1.364.312 1.884c.208.52.496.916.864 1.188.376.272.808.408 1.296.408zM166.06 390.64c.792 0 1.412.228 1.86.684.456.456.684 1.128.684 2.016V397h-.852v-3.576c0-.656-.16-1.156-.48-1.5-.312-.344-.756-.516-1.332-.516-.656 0-1.172.204-1.548.612-.376.4-.564.956-.564 1.668V397h-.852v-3.576c0-.656-.16-1.156-.48-1.5-.312-.344-.76-.516-1.344-.516-.648 0-1.164.204-1.548.612-.376.4-.564.956-.564 1.668V397h-.852v-6.312h.816v1.152c.224-.384.536-.68.936-.888.4-.208.86-.312 1.38-.312.528 0 .984.112 1.368.336.392.224.684.556.876.996a2.43 2.43 0 01.996-.972c.44-.24.94-.36 1.5-.36zm8.179 1.896v.54h-3.936v-.42l2.28-2.016c.296-.264.496-.48.6-.648a.995.995 0 00.168-.54c0-.248-.112-.452-.336-.612-.216-.16-.548-.24-.996-.24a2.41 2.41 0 00-.852.144 1.583 1.583 0 00-.612.408l-.444-.348c.416-.504 1.064-.756 1.944-.756.624 0 1.104.128 1.44.384.336.256.504.584.504.984 0 .256-.068.5-.204.732-.128.224-.372.496-.732.816l-1.776 1.572h2.952z"/>
      </g>
      <g>
        <path fill="#00263E" d="M384.646 224l-3.03 7h-1.6l-3.02-7h1.75l2.13 5 2.16-5h1.61zm5.36 5.5h-3.25l-.62 1.5h-1.66l3.12-7h1.6l3.13 7h-1.7l-.62-1.5zm-.51-1.23l-1.11-2.68-1.11 2.68h2.22zm10.377-4.27v7h-1.33l-3.49-4.25V231h-1.6v-7h1.34l3.48 4.25V224h1.6zm8.476 0v7h-1.33l-3.49-4.25V231h-1.6v-7h1.34l3.48 4.25V224h1.6zm2.056 0h1.62v7h-1.62v-7zm3.371 3.56h2.83v1.25h-2.83v-1.25zm-29.62 10.76h-2.24V237h6.1v1.32h-2.24V244h-1.62v-5.68zm8.124 5.8c-1 0-1.78-.277-2.34-.83-.553-.553-.83-1.343-.83-2.37V237h1.62v3.86c0 1.253.52 1.88 1.56 1.88.507 0 .894-.15 1.16-.45.267-.307.4-.783.4-1.43V237h1.6v3.92c0 1.027-.28 1.817-.84 2.37-.553.553-1.33.83-2.33.83zm10.311-3.76c.4.127.714.34.94.64.227.293.34.657.34 1.09 0 .613-.24 1.087-.72 1.42-.473.327-1.166.49-2.08.49h-3.62v-7h3.42c.854 0 1.507.163 1.96.49.46.327.69.77.69 1.33 0 .34-.083.643-.25.91-.16.267-.386.477-.68.63zm-3.53-2.14v1.65h1.61c.4 0 .704-.07.91-.21.207-.14.31-.347.31-.62s-.103-.477-.31-.61c-.206-.14-.51-.21-.91-.21h-1.61zm1.89 4.56c.427 0 .747-.07.96-.21.22-.14.33-.357.33-.65 0-.58-.43-.87-1.29-.87h-1.89v1.73h1.89zm9.157-.28h-3.25l-.62 1.5h-1.66l3.12-7h1.6l3.13 7h-1.7l-.62-1.5zm-.51-1.23l-1.11-2.68-1.11 2.68h2.22zM380.432 254.044c1.216 0 2.1.22 2.652.66.56.432.84 1.04.84 1.824 0 .488-.116.924-.348 1.308-.224.384-.564.688-1.02.912-.456.216-1.016.324-1.68.324-.6 0-1.172-.096-1.716-.288-.536-.2-.968-.464-1.296-.792l.42-.684c.28.288.648.524 1.104.708.456.176.948.264 1.476.264.696 0 1.232-.156 1.608-.468.384-.312.576-.728.576-1.248 0-.576-.216-1.012-.648-1.308-.424-.296-1.144-.444-2.16-.444h-1.788l.432-4.212h4.596v.768h-3.84l-.288 2.676h1.08zm5.249 3.708c.184 0 .336.064.456.192.12.12.18.272.18.456 0 .096-.016.2-.048.312-.024.112-.064.24-.12.384l-.504 1.656h-.576l.408-1.74a.615.615 0 01-.312-.216.663.663 0 01-.12-.396c0-.184.06-.336.18-.456a.598.598 0 01.456-.192zm6.812-3.156c.528.176.932.44 1.212.792.288.352.432.776.432 1.272 0 .488-.132.916-.396 1.284-.264.36-.644.64-1.14.84-.488.192-1.064.288-1.728.288-1.008 0-1.8-.216-2.376-.648-.576-.432-.864-1.02-.864-1.764 0-.504.136-.928.408-1.272.28-.352.684-.616 1.212-.792-.432-.168-.76-.408-.984-.72a1.917 1.917 0 01-.336-1.128c0-.68.264-1.22.792-1.62.536-.4 1.252-.6 2.148-.6.592 0 1.108.092 1.548.276.448.176.796.432 1.044.768s.372.728.372 1.176c0 .432-.116.808-.348 1.128-.232.312-.564.552-.996.72zm-3.696-1.824c0 .464.184.832.552 1.104.368.272.876.408 1.524.408s1.156-.136 1.524-.408c.376-.272.564-.636.564-1.092 0-.472-.192-.844-.576-1.116-.376-.272-.88-.408-1.512-.408-.64 0-1.148.136-1.524.408-.368.272-.552.64-.552 1.104zm2.076 5.568c.744 0 1.324-.152 1.74-.456.424-.304.636-.716.636-1.236s-.212-.928-.636-1.224c-.416-.304-.996-.456-1.74-.456-.736 0-1.316.152-1.74.456-.416.296-.624.704-.624 1.224 0 .528.208.944.624 1.248.416.296.996.444 1.74.444zM407.66 252.64c.792 0 1.412.228 1.86.684.456.456.684 1.128.684 2.016V259h-.852v-3.576c0-.656-.16-1.156-.48-1.5-.312-.344-.756-.516-1.332-.516-.656 0-1.172.204-1.548.612-.376.4-.564.956-.564 1.668V259h-.852v-3.576c0-.656-.16-1.156-.48-1.5-.312-.344-.76-.516-1.344-.516-.648 0-1.164.204-1.548.612-.376.4-.564.956-.564 1.668V259h-.852v-6.312h.816v1.152c.224-.384.536-.68.936-.888.4-.208.86-.312 1.38-.312.528 0 .984.112 1.368.336.392.224.684.556.876.996a2.43 2.43 0 01.996-.972c.44-.24.94-.36 1.5-.36zm8.179 1.896v.54h-3.936v-.42l2.28-2.016c.296-.264.496-.48.6-.648a.995.995 0 00.168-.54c0-.248-.112-.452-.336-.612-.216-.16-.548-.24-.996-.24a2.41 2.41 0 00-.852.144 1.583 1.583 0 00-.612.408l-.444-.348c.416-.504 1.064-.756 1.944-.756.624 0 1.104.128 1.44.384.336.256.504.584.504.984 0 .256-.068.5-.204.732-.128.224-.372.496-.732.816l-1.776 1.572h2.952z"/>
      </g>
    </g>
    <g>
      <path fill="#0E1632" fill-opacity=".3" fill-rule="evenodd" d="M638.623 41.148c7.327-3.087 11.408-10.625 10.375-18.084l-.527.464c.81 7.08-3.118 14.16-10.072 17.089-6.691 2.819-14.174.95-18.739-4.117l-.721.06c4.694 5.49 12.616 7.566 19.684 4.588zm-23.121-14.52l-.546.484c-.652-7.196 3.396-14.318 10.466-17.297 7.401-3.118 15.738-.694 20.326 5.388l-.693.054c-4.477-5.66-12.38-7.872-19.409-4.91-6.69 2.818-10.579 9.476-10.144 16.28z" clip-rule="evenodd"/>
      <path fill="#F7C790" fill-rule="evenodd" d="M655.649 15.527L635.085 28.53l-3.106-7.372 23.67-5.632z" clip-rule="evenodd"/>
      <path fill="#00263E" fill-rule="evenodd" d="M608.653 35.328l20.564-13.005 3.106 7.373-23.67 5.632z" clip-rule="evenodd"/>
      <path fill="#00263E" d="M601.629 30.8V42h-2.128l-5.584-6.8V42h-2.56V30.8h2.144l5.568 6.8v-6.8h2.56z"/>
    </g>
  </g>
  <defs>
    <clipPath id="clip0">
      <path fill="#fff" d="M0 0h657v584H0z"/>
    </clipPath>
  </defs>
</svg>
