<svg xmlns="http://www.w3.org/2000/svg" width="657" height="584" fill="none" viewBox="0 0 657 584">
  <g clip-path="url(#clip0)">
    <path stroke="#00263E" stroke-miterlimit="10" stroke-width="21.03" d="M589.1 575.8l1.2-91M542.8 107.3l-10-25.3-25.7-.4"/>
    <path stroke="#00263E" stroke-miterlimit="10" stroke-width="25.24" d="M450.5 81.3l-28.5-.1M398.1 80.8l-48.7.1M263.9 79.7h-20.4"/>
    <path stroke="#00263E" stroke-miterlimit="10" stroke-width="29.44" d="M148.9 114.7l-.5-46.4"/>
    <path stroke="#00263E" stroke-miterlimit="10" stroke-width="10.52" d="M140.1 111.6l-1 394.8 65.4.4M135 466.4l-59.6.4.4 39.1-25.9.2M71 567.7l526.1 2.8M580.2 490.6l-27.5-.3V568M382 306.5l30.9.6-.2 25.3-30.8-.7.1-25.2z"/>
    <path stroke="#00263E" stroke-miterlimit="10" stroke-width="7.15" d="M413.9 567.8l-.1-93.3M417.4 484l-66.2-.1-.1 32M413.8 336.2l-.8 104.9M376.9 333.4h-24.7l-.8 100.9h8.7M394.1 437.4l18 .1M354 90l-1 168.7 17.3.1"/>
    <path stroke="#53596C" stroke-miterlimit="10" stroke-width=".97" d="M604 282.9l-1.8 120.5-.3 1.8h-8.4l2.2-117.2-.1-5.1h8.4zM595.4 290.4h8.4M588.1 405l2.4-123.3M593.5 405.2l-8.1-.3 2.1-123.6"/>
    <path stroke="#53596C" stroke-miterlimit="10" stroke-width=".8" d="M293.1 69.4l56.1.1.9-.2.1 12-56.9-.7-.2-11.2zM298 80.7l.2-11.7M344.4 81.4l.2-11.7M350.3 89.2l-57.2-.6M293.3 80.6l-.2 12.2 56.9.2.2-11.7"/>
    <path stroke="#53596C" stroke-miterlimit="10" stroke-width=".97" d="M162.7 68.7l79.9.1 1.6-.1v12l-78-.4h-3.7l.2-11.6zM167.7 80.2l-.1-12M239.8 80.4l.1-11.7M244.3 88.6l-81.9-.8M244.2 80.7l-.2 11.7-81.9-.7"/>
    <path stroke="#53596C" stroke-miterlimit="10" stroke-width=".42" d="M393.932 431.753l-2.1.033.588 37.426 2.1-.033-.588-37.426z"/>
    <path stroke="#53596C" stroke-miterlimit="10" stroke-width=".42" d="M360.6 434.6l1.9-.3c.3 18.7 14 34.2 30.2 34.1v.6c-16.2.1-29.9-15.4-30.5-34.4h-1.6zM422.969 437.788l-.031 2.5 51.737.632.03-2.5-51.736-.632zM80.17 511.329l-58 .405.021 2.94 57.999-.405-.02-2.94z"/>
    <path stroke="#53596C" stroke-miterlimit="10" stroke-width=".42" d="M76.8 562.9h.6v-2.6h-.6c-29.2.3-53.8-20.7-54.1-45.7h-.6c.3 25 25.2 46.3 54.4 46l.3 2.3zM216.3 101.3l20.6-21h1.9l-21.5 22.2-1-1.2z"/>
    <path stroke="#53596C" stroke-miterlimit="10" stroke-width=".42" d="M203.3 79.8a21.196 21.196 0 003.5 11.2 48.732 48.732 0 005.8 7.1 31.977 31.977 0 004.7 4.3M237 78.6l-.1 1.7 2.2.1.2-1.7-2.3-.1z"/>
    <path stroke="#53596C" stroke-miterlimit="10" stroke-width=".42" d="M202.3 78.2v1.7h2.2l.1-1.7h-2.3z"/>
    <path stroke="#53596C" stroke-miterlimit="10" stroke-width=".29" d="M280.4 98.1l-15.6-17.6h1.5l14.8 16.8-.7.8z"/>
    <path stroke="#53596C" stroke-miterlimit="10" stroke-width=".29" d="M280.5 98.1l3.7-3.1a44.077 44.077 0 004.5-5.2 15.698 15.698 0 003.1-8.4M264.5 79.2l.1 1.3h1.7v-1.3h-1.8z"/>
    <path stroke="#53596C" stroke-miterlimit="10" stroke-width=".29" d="M290.9 80.1v1.3l1.7.1v-1.2l-1.7-.2zM411.6 95.7l-14.2-16.2 1.4.1L412.4 95l-.8.7z"/>
    <path stroke="#53596C" stroke-miterlimit="10" stroke-width=".29" d="M411.8 95.7l3.4-2.8a37.196 37.196 0 004.1-4.8 14.603 14.603 0 002.9-7.7M397.1 78.4l.1 1.2h1.6l-.1-1.2h-1.6z"/>
    <path stroke="#53596C" stroke-miterlimit="10" stroke-width=".29" d="M421.4 79.2v1.2l1.5.1v-1.2l-1.5-.1z"/>
    <path stroke="#53596C" stroke-miterlimit="10" stroke-width=".8" d="M450 69.7l56.1.1h.9l.1 11.8-56.9-.7-.2-11.2zM454.9 80.9l.2-11.6M501.3 81.6l.2-11.7M507.1 89.4l-57.1-.6M450.2 80.9l-.3 12.2 57 .2.2-11.7M551.2 104l19.6 52.5 17.2 47.8-8.7 2.4-36.3-99.5 8.2-3.2zM544.7 111.3l8.1-2.9M577.7 202.3l8.7-2.8M574.6 208.1l-36.3-99.2M543 107.2l-8.8 3.4 36.6 98.7 8.5-2.6"/>
    <path stroke="#00263E" stroke-miterlimit="10" stroke-width="21.03" d="M580.1 206.7l14.6 46.5.3 29.2"/>
    <path stroke="#53596C" stroke-miterlimit="10" stroke-width=".8" d="M601.9 444.7v39.5l-.1.9-11.8.1-.7-40.8 12.6.3zM589.4 450.7l12.3.2M590 479.4l11.7.2M582.2 485.2l.4-40.9"/>
    <path stroke="#53596C" stroke-miterlimit="10" stroke-width=".8" d="M589.3 444.4l-10.8-.1-.2 40.7 11.7.2"/>
    <path stroke="#00263E" stroke-miterlimit="10" stroke-width="21.03" d="M592.8 384.7l-.6 60.2"/>
    <path stroke="#53596C" stroke-miterlimit="10" stroke-width=".97" d="M594.1 377.8h8.4"/>
    <path stroke="#00263E" stroke-miterlimit="10" stroke-width="7.15" d="M351.1 547.3v19.1"/>
    <path stroke="#53596C" stroke-miterlimit="10" stroke-width=".42" d="M574.7 353.9l20.8 20.8v2l-22-21.8 1.2-1z"/>
    <path stroke="#53596C" stroke-miterlimit="10" stroke-width=".42" d="M596.4 341.1a21.798 21.798 0 00-11.3 3.5 47.201 47.201 0 00-7.1 5.6 48.63 48.63 0 00-4.4 4.7M597.3 374.9l-1.8-.2v2.2l1.7.2.1-2.2z"/>
    <path stroke="#53596C" stroke-miterlimit="10" stroke-width=".42" d="M598 340.2l-1.7-.1v2.2l1.7.1v-2.2z"/>
    <path stroke="#53596C" stroke-miterlimit="10" stroke-width=".32" d="M573.4 467.1l17.5-15.4v1.5l-16.7 14.7-.8-.8z"/>
    <path stroke="#53596C" stroke-miterlimit="10" stroke-width=".32" d="M573.4 467.3a35.807 35.807 0 003.1 3.7 37.324 37.324 0 005.2 4.5 14.903 14.903 0 008.3 3.1M592.2 451.4l-1.3.1v1.7l1.3-.1v-1.7z"/>
    <path stroke="#53596C" stroke-miterlimit="10" stroke-width=".32" d="M591.3 477.7H590l-.1 1.7h1.3l.1-1.7z"/>
    <path stroke="#53596C" stroke-miterlimit="10" stroke-width=".43" d="M410.886 266.403l-.038 2.2 38.574.673.038-2.2-38.574-.673z"/>
    <path stroke="#53596C" stroke-miterlimit="10" stroke-width=".43" d="M412.7 300.8l-.3-1.9c19.2.3 35.7-13.2 36.2-30h.6c-.5 16.7-17 30.3-36.6 30.2l.1 1.7z"/>
    <path stroke="#53596C" stroke-miterlimit="10" stroke-width=".42" d="M371.39 223.916l-.374 37.4 2.1.021.374-37.4-2.1-.021z"/>
    <path stroke="#53596C" stroke-miterlimit="10" stroke-width=".42" d="M404.5 259.3l-1.8.3c.1-18.7-13.1-34.5-29.4-34.9v-.6c16.3.4 29.5 16.2 29.6 35.3l1.6-.1z"/>
    <path stroke="#53596C" stroke-miterlimit="10" stroke-width=".4" d="M409.807 442.535l-.025 2 35.698.436.024-2-35.697-.436z"/>
    <path stroke="#53596C" stroke-miterlimit="10" stroke-width=".4" d="M411.9 474.5l-.3-1.8c17.8.2 33-12.4 33.4-27.9h.5c-.4 15.5-15.5 28.1-33.6 28.1v1.6z"/>
    <path stroke="#53596C" stroke-miterlimit="10" stroke-width=".38" d="M318.767 541.875l-.037 1.9 33.654.646.037-1.9-33.654-.646z"/>
    <path stroke="#53596C" stroke-miterlimit="10" stroke-width=".38" d="M352.2 517l.2 1.7c-16.7-.4-31.2 11.3-31.7 25.9h-.5c.5-14.6 14.9-26.3 32-26.1V517z"/>
    <path stroke="#00263E" stroke-miterlimit="10" stroke-width="4.21" d="M261.9 69.1l-9.7-20.6 24.2-40.1h135.9l21.5 44.1-11.2 21"/>
    <path stroke="#53596C" stroke-linecap="round" stroke-linejoin="round" stroke-width=".37" d="M357.5 192.2h27.2V93"/>
    <path stroke="#53596C" stroke-linecap="round" stroke-linejoin="round" stroke-width=".28" d="M383.3 143l-24.4-1.5 24.4-4.6-24.4-2.2 24.4-4.2-24.4-2.9 24.4-3.5-24.4-2.5 24.4-3.3-24.4-2.6 24.4-4.8-24.4-3.2 24.4-4.1-24.4-3.3 24.4-3.3M383.3 189.1l-24.4-1.6 24.4-4.6-24.4-2.2 24.4-4.2-24.4-2.9 24.4-3.5-24.4-2.5 24.4-3.3-24.4-2.6 24.4-4.7-24.4-3.3 24.4-4.1-24.4-3.3 24.4-3.3M371.1 189.7V97"/>
    <path stroke="#53596C" stroke-linecap="round" stroke-linejoin="round" stroke-width=".42" d="M442 435.8V302.5h-26.5"/>
    <path stroke="#53596C" stroke-linecap="round" stroke-linejoin="round" stroke-width=".32" d="M440.7 430.3l-23.8-4.4 23.8-4.4-23.8-5.5 23.8-4.4-23.8-6.4 23.8-3.4-23.8-4.5 23.8-3.3-23.8-4.7 23.8-4-23.8-5.6 23.8-2.9-23.8-6.2 23.8-2.1M440.7 368.5l-23.8-4.5 23.8-4.3-23.8-5.6 23.8-4.4-23.8-6.3 23.8-3.5-23.8-4.4 23.8-3.4-23.8-4.7 23.8-3.9-23.8-5.6 23.8-2.9-23.8-6.2 23.8-2.1M428.8 430.3V305.8M81.1 472.8v38.3h52.5"/>
    <path stroke="#53596C" stroke-linecap="round" stroke-linejoin="round" stroke-width=".24" d="M107.1 509.2l.8-34.4 2.4 34.4 1.2-34.4 2.2 34.4 1.6-34.4 1.8 34.4 1.3-34.4 1.8 34.4 1.4-34.4 2.5 34.4 1.7-34.4 2.2 34.4 1.7-34.4 1.7 34.4"/>
    <path stroke="#53596C" stroke-linecap="round" stroke-linejoin="round" stroke-width=".24" d="M82.7 509.2l.8-34.4 2.5 34.4 1.2-34.4 2.1 34.4 1.6-34.4 1.9 34.4 1.3-34.4 1.7 34.4 1.4-34.4 2.5 34.4 1.7-34.4 2.2 34.4 1.7-34.4 1.8 34.4M82.4 492h49"/>
    <path stroke="#53596C" stroke-miterlimit="10" stroke-width=".65" d="M569.3 457.2l3.7.6 3.7 1.1M576.8 473.8l-3.7 1.1-3.9.7M569.2 475.6h-.6l-.9.1M567.7 475.7h-.2v-.2h-.1l-.2-.1v-.4M567.2 475l-.5-4.3-.1-4.3V462l.5-4.3M567.1 457.7V457.4l.1-.1.2-.1h.2v-.1"/>
    <path stroke="#53596C" stroke-miterlimit="10" stroke-width=".65" d="M567.6 457.1l.8-.1.9.2M576.8 471.9l-1.9.8-2 .4-2 .1M570.9 473.2H570.6l-.2-.1-.2-.1v-.2l-.1-.1M570.1 472.7l-.6-2.5-.3-2.5V465l.3-2.5.5-2.6M570 459.9l.1-.1v-.1l.2-.1.2-.2H570.8M570.8 459.4l2 .1 2 .4 1.9.8"/>
    <path stroke="#53596C" stroke-miterlimit="10" stroke-width=".65" d="M567.1 457.3l.8.3.7.3.7.5.5.5.3.8.4.6.1.8M570.6 461.1l.2 5.3-.1 5.2M570.7 471.6l-.1.7-.4.8-.3.6-.5.5-.7.5-.6.4-.9.3M567.5 475.5l-3.8.4-3.9.2M559.8 476.1l-2.9-.1-3-.4-3.1-.6-2.8-.8-2.7-1M545.3 473.2l-1.4-.8-1-.9-.8-1.1-.7-1.1-.6-1.4v-1.4l.2-1.3.3-1.4.7-1.1.8-1.2 1.2-.9 1.2-.7M545.2 459.9l2.7-1 2.8-1 3.1-.6 3-.4 2.8-.2M559.6 456.7l3.9.1 3.9.4"/>
    <path stroke="#53596C" stroke-miterlimit="10" stroke-width=".65" d="M564.2 456.8h.2v.1h.1l.2.2.2.1v.4M564.9 457.6l.4 5.8v5.9l-.3 5.9M565 475.2V475.5l-.2.2-.1.1h-.2v.1h-.2"/>
    <path stroke="#53596C" stroke-miterlimit="10" stroke-width=".65" d="M567.5 475.5l-3.8.4-3.9.2M559.8 476.1l-2.9-.1-3-.4-3.1-.6-2.8-.8-2.7-1M545.3 473.2l-1.4-.8-1-.9-.8-1.1-.7-1.1-.6-1.4v-1.4l.2-1.3.3-1.4.7-1.1.8-1.2 1.2-.9 1.2-.7M545.2 459.9l2.7-1 2.8-1 3.1-.6 3-.4 2.8-.2M559.6 456.7l3.9.1 3.9.4M569.3 457.2l3.7.6 3.7 1.1M576.8 473.8l-3.7 1.1-3.9.7M569.2 475.6h-.6l-.9.1"/>
    <path stroke="#53596C" stroke-miterlimit="10" stroke-width=".65" d="M567.7 475.7h-.2v-.2h-.1l-.2-.1v-.4M567.2 475l-.5-4.3-.1-4.3V462l.5-4.3M567.1 457.7V457.4l.1-.1.2-.1h.2v-.1"/>
    <path stroke="#53596C" stroke-miterlimit="10" stroke-width=".65" d="M567.6 457.1l.8-.1.9.2M572.4 465h.3l.3.1h.2l.2.3.3.1v.2l.2.3v.7l-.2.3-.1.2-.2.2-.3.1-.2.1h-.9l-.1-.1-.4-.1-.1-.1-.2-.3-.2-.2v-.8l.2-.3v-.2l.3-.1.2-.3h.1l.4-.1h.2zM576.7 458.9l.1 14.9"/>
    <path stroke="#53596C" stroke-linecap="round" stroke-linejoin="round" stroke-width=".52" d="M500.4 517h45M500.4 517l.4 47.9M500.8 564.9h45M545.8 564.9l-.4-47.9M523.7 561.3l-.2 3M524.5 560.9l-.1 3.5M525 561.2v3.4M526 561.2l-.2 3.1M526.4 561.1l.3 3.2M527.3 561.1v3.4M528.2 561.2l-.1 3M528.6 561l.4 3.2M529.6 561l-.1 3.5M530.5 561.1l-.1 3M531.1 561.4l.2 2.8M531.8 561l.1 3.4M532.7 561l-.1 3M533.3 561.3l-.1 3M534.1 560.9v3.5M534.6 561.2l.5 3.3M535.6 561.3l-.2 3M536.4 560.9v3.4M537 561.1l.3 3.2M537.8 561.2l-.1 3M538.7 560.8l-.1 3.4M539.2 561.1v3.4M540.2 561.2l-.2 3M540.7 561.3l.2 2.9M541.5 561v3.4M542.4 561l-.1 3M522.8 561.2l.1 2.9M522.2 561v3.4M521.4 561.4l-.2 3M520.4 561.3l.3 2.8M519.9 561v3.5M519.1 561.4l-.1 3M518.6 561.1l-.2 3M517.6 561.1l.1 3.4M516.7 561.1v3.4M516.3 561.2l-.1 3M515.4 561.2l-.1 3.4M514.4 561.1l.4 3.2M514.1 561.2l-.2 3.1M513.1 561.3v3.3M512.2 561.2l.3 3.3M511.8 561.4l-.2 3M510.8 561.3l-.2 3M510.3 561v3.5M509.5 561.4l-.2 3M508.5 561.3l.2 2.9M508 561.1v3.5M507 561l.1 3.5M506.3 561.4l.2 2.8M505.7 561.1l.1 3.5M504.7 561.1l.1 3.4M504.4 561.2l-.2 3.1M543 561.3l.2 2.8M543.7 560.9l.1 3.5M544.7 561l-.1 3M545.2 561.2l.3 2.9M503.4 561.2l.1 3.4M502.5 561.2v3.4M502.1 561.3l-.1 3.1M501.2 561.3l-.2 3M501 560.8l-.2 4.1M545.9 560.5l-44.9.3M545.8 564.9l.1-4.4M500.8 564.9h45M523.3 564.9l-.2-10.7M520.2 559.4h6M518.2 563.8l10.1-.2M524.27 553.482c1.491-.015 2.687-1.326 2.67-2.928-.017-1.601-1.239-2.887-2.73-2.871-1.491.015-2.687 1.326-2.67 2.928.017 1.601 1.239 2.887 2.73 2.871z"/>
    <path stroke="#53596C" stroke-linecap="round" stroke-linejoin="round" stroke-width=".65" d="M475.2 562.2l-.2-10.7M478.4 555.8l-7 .1M476.8 553.4l-3.7.1M488.4 556.3l-27.2.1M488.5 545.3l-.1 10.9M461.2 545.2h27.2M461.2 556.4v-11.2M459.3 543.3l.2 18.9M490.5 543.3h-31.2M490.4 562.3l.1-19M459.6 562.2l30.8.1"/>
    <path stroke="#53596C" stroke-miterlimit="10" stroke-width=".65" d="M373.8 345.1l.6-3.7 1.1-3.7M390.4 337.6l1.1 3.7.7 3.9M392.2 345.2v.6l.1.9M392.3 346.7v.2h-.2v.1l-.1.2h-.4M391.6 347.2l-4.3.5-4.3.1h-4.4l-4.3-.5M374.3 347.3H374l-.1-.1-.1-.2v-.2h-.1M373.7 346.8l-.1-.8.2-.9M388.5 337.6l.8 1.9.4 2 .1 2M389.8 343.5V343.8l-.1.2-.1.2h-.2l-.1.1M389.3 344.3l-2.5.6-2.5.3h-2.7l-2.5-.3-2.6-.5M376.5 344.4l-.1-.1h-.1l-.1-.2-.2-.2V343.6M376 343.6l.1-2 .4-2 .8-1.9"/>
    <path stroke="#53596C" stroke-miterlimit="10" stroke-width=".65" d="M373.9 347.3l.3-.8.3-.7.5-.7.5-.5.8-.3.6-.4.8-.1M377.7 343.8l5.3-.2 5.2.1M388.2 343.7l.7.1.8.4.6.3.5.5.5.7.4.6.3.9M392.1 346.9l.4 3.8.2 3.9M392.7 354.6l-.1 2.9-.4 3-.6 3.1-.8 2.8-1 2.7M389.8 369.1l-.8 1.4-.9 1-1.1.8-1.1.7-1.4.6h-1.4l-1.3-.2-1.4-.3-1.1-.7-1.2-.8-.9-1.2-.7-1.2M376.5 369.2l-1-2.7-1-2.8-.6-3.1-.4-3-.2-2.8"/>
    <path stroke="#53596C" stroke-miterlimit="10" stroke-width=".65" d="M373.3 354.8l.1-3.9.4-3.9"/>
    <path stroke="#53596C" stroke-miterlimit="10" stroke-width=".65" d="M373.4 350.2v-.2h.1v-.1l.2-.2.1-.2h.4M374.2 349.5l5.8-.4h5.9l5.9.3M391.8 349.4H392.1l.2.2.1.1v.2h.1v.2"/>
    <path stroke="#53596C" stroke-miterlimit="10" stroke-width=".65" d="M392.1 346.9l.4 3.8.2 3.9M392.7 354.6l-.1 2.9-.4 3-.6 3.1-.8 2.8-1 2.7M389.8 369.1l-.8 1.4-.9 1-1.1.8-1.1.7-1.4.6h-1.4l-1.3-.2-1.4-.3-1.1-.7-1.2-.8-.9-1.2-.7-1.2M376.5 369.2l-1-2.7-1-2.8-.6-3.1-.4-3-.2-2.8"/>
    <path stroke="#53596C" stroke-miterlimit="10" stroke-width=".65" d="M373.3 354.8l.1-3.9.4-3.9M373.8 345.1l.6-3.7 1.1-3.7M390.4 337.6l1.1 3.7.7 3.9M392.2 345.2v.6l.1.9M392.3 346.7v.2h-.2v.1l-.1.2h-.4M391.6 347.2l-4.3.5-4.3.1h-4.4l-4.3-.5"/>
    <path stroke="#53596C" stroke-miterlimit="10" stroke-width=".65" d="M374.3 347.3H374l-.1-.1-.1-.2v-.2h-.1M373.7 346.8l-.1-.8.2-.9M381.6 342v-.3l.1-.3v-.2l.3-.2.1-.3h.2l.3-.2h.7l.3.2.2.1.2.2.1.3.1.2v.9l-.1.1-.1.4-.1.1-.3.2-.2.2h-.8l-.3-.2h-.2l-.1-.3-.3-.2v-.1l-.1-.4v-.2zM375.5 337.7l14.9-.1"/>
    <path stroke="#53596C" stroke-linecap="round" stroke-linejoin="round" stroke-width=".46" d="M409.7 403.3l-7.5.2M405.2 401.1l.1 4.9M403.5 402.2l.1 2.6M405.6 394v19.1M397.9 394h7.6M397.8 413.1V394M405.6 413.1h-7.8M396.5 414.5l13.2-.2M396.5 392.6v21.9M409.8 392.6h-13.3M409.7 414.3l.1-21.7"/>
    <path stroke="#53596C" stroke-linecap="round" stroke-linejoin="round" stroke-width=".65" d="M418.5 530.9l31.8-.3.3 32.8M432.1 547.5l-1.9-2.3-1.7 2.4 1.9 2.4 1.7-2.5z"/>
    <path stroke="#53596C" stroke-linecap="round" stroke-linejoin="round" stroke-width=".65" d="M438.7 547.4l-1.9-2.4-1.7 2.5 1.8 2.3 1.8-2.4z"/>
    <path stroke="#53596C" stroke-linecap="round" stroke-linejoin="round" stroke-width=".65" d="M450.6 563.4l-32.2.1.1-32.6"/>
    <path stroke="#53596C" stroke-miterlimit="10" stroke-width=".59" d="M488.3 436.3l.1-45.3 94.1-.6M557.4 390.6l-.1 44.1"/>
    <path stroke="#53596C" stroke-miterlimit="10" stroke-width=".73" d="M584.6 360.1h-19.1v22.24h19.1V360.1z"/>
    <path stroke="#53596C" stroke-miterlimit="10" stroke-width=".55" d="M519.261 267.826l-.164 31.3 63.299.331.164-31.299-63.299-.332zM557.2 303.7a7.899 7.899 0 01-8.3 7.1 7.702 7.702 0 01-7.1-7.2"/>
    <path stroke="#53596C" stroke-miterlimit="10" stroke-width=".55" d="M557.2 305.1a7.898 7.898 0 01-8.3 7.1 7.702 7.702 0 01-7.1-7.2"/>
    <path stroke="#53596C" stroke-miterlimit="10" stroke-width=".55" d="M558.4 305.1a9.004 9.004 0 01-6.494 7.624 9.001 9.001 0 01-3.506.276 8.799 8.799 0 01-7.9-8"/>
    <path stroke="#53596C" stroke-miterlimit="10" stroke-width=".55" d="M557.7 305.1a8.299 8.299 0 01-8.9 7.6 8.2 8.2 0 01-7.6-7.7M558.4 305.1v-5.8M540.5 305.1v-5.9"/>
    <path stroke="#53596C" stroke-miterlimit="10" stroke-width=".55" d="M557.7 301.4a8.299 8.299 0 01-8.9 7.6 8.2 8.2 0 01-7.6-7.7M541.6 304.9v-1.3M541.6 303.6l-.3.1M541.2 305.1l.1-5.9M557.2 303.7l.4-.1M557.2 305.1v-1.4M557.6 305v-5.7M557.6 299.3h.8"/>
    <path stroke="#00263E" stroke-miterlimit="10" stroke-width="7.15" d="M582.5 438l-170.3-.3"/>
    <path stroke="#53596C" stroke-miterlimit="10" stroke-width=".58" d="M442.8 259.4l.1-27.4.6-72 78.4.4-.7 98.8M521.3 231.4l-78.4-.4M547.1 260l.2-21.9-21-.1-.3 21.9M438.3 259.5l.3-21.2-21.7-.1-.3 22.3"/>
    <path stroke="#00263E" stroke-miterlimit="10" stroke-width="7.15" d="M405.6 261l180.9 1.5"/>
    <path stroke="#53596C" stroke-linecap="round" stroke-linejoin="round" stroke-width=".65" d="M209.5 239.6l20.7-.2M230.2 239.4l.2-61.4M230.4 178l-20.9.1M209.5 178.1v61.5M145.8 201.6l.6-37.3M145.8 201.6l.2 45M193.3 159.8l50.4-.3-.4-43.6-96.5.1-.4 48.3M153.5 238.8l.3-115.1M191.7 238.5l-45.7.3M146 246.6l45.6.4M191.8 247l.6-131M191.9 202.8h-46.1M192.3 123.7l-45.6-.5M193.3 159.8l-46.9-.4"/>
    <path stroke="#53596C" stroke-miterlimit="10" stroke-width=".65" d="M346.1 138.5l1.5 13.8-.2 27.5-1.6 13.6m-1.5-.1l.3-54.9h1.5l-.3 54.9h-1.5z"/>
    <path stroke="#53596C" stroke-miterlimit="10" stroke-width=".65" d="M348.9 136.1l-.5 60.5-15.4-.6.4-60.5 15.5.6z"/>
    <path stroke="#53596C" stroke-miterlimit="10" stroke-width=".71" d="M145.5 320.9l-.4-37.2 87.2-.1.4 37.3h-87.2zM221.3 277.6c0-4.7-3.1-8.4-6.8-8.3-3.7.1-6.8 3.7-6.8 8.4"/>
    <path stroke="#53596C" stroke-miterlimit="10" stroke-width=".71" d="M221.3 275.9c0-4.6-3.1-8.4-6.8-8.2-3.7.2-6.8 3.7-6.8 8.4"/>
    <path stroke="#53596C" stroke-miterlimit="10" stroke-width=".71" d="M222.4 275.9c0-5.3-3.5-9.6-7.9-9.6s-7.9 4.3-7.9 9.6"/>
    <path stroke="#53596C" stroke-miterlimit="10" stroke-width=".71" d="M221.8 275.9c0-4.9-3.2-8.8-7.3-8.8s-7.3 4-7.3 8.8M222.4 275.9l-.1 6.7M206.7 275.9v6.8"/>
    <path stroke="#53596C" stroke-miterlimit="10" stroke-width=".71" d="M221.8 280.2c0-4.9-3.2-8.8-7.3-8.8s-7.3 4-7.3 8.8M207.7 276v1.7M207.7 277.7l-.3-.1M207.4 275.9v6.8M221.4 277.6l.3.1M221.3 275.9l.1 1.7M221.7 276v6.6M221.7 282.6h.6M195.1 277.7c0-4.7-3.1-8.4-6.8-8.3-3.7.1-6.8 3.7-6.8 8.4"/>
    <path stroke="#53596C" stroke-miterlimit="10" stroke-width=".71" d="M195.1 276c0-4.6-3.1-8.3-6.8-8.2-3.7.1-6.8 3.7-6.8 8.4"/>
    <path stroke="#53596C" stroke-miterlimit="10" stroke-width=".71" d="M196.2 276c0-5.3-3.6-9.6-7.9-9.6-4.3 0-7.9 4.3-7.9 9.6"/>
    <path stroke="#53596C" stroke-miterlimit="10" stroke-width=".71" d="M195.6 276c0-4.8-3.2-8.8-7.3-8.8s-7.3 4-7.3 8.8M196.2 276l-.1 6.7M180.5 276.2v6.6"/>
    <path stroke="#53596C" stroke-miterlimit="10" stroke-width=".71" d="M195.6 280.4c0-4.9-3.2-8.9-7.3-8.9s-7.3 4-7.3 8.9M181.4 276.3v1.5M181.4 277.8l-.3-.1M181.1 276v6.8M195.1 277.7l.4.1M195.1 276v1.7M195.5 276.2v6.6M195.5 282.8l.6-.1M166.3 278c0-4.7-3.1-8.4-6.8-8.3-3.7.1-6.8 3.8-6.8 8.4"/>
    <path stroke="#53596C" stroke-miterlimit="10" stroke-width=".71" d="M166.3 276.5c0-4.6-3.1-8.4-6.8-8.2-3.7.2-6.8 3.7-6.8 8.3"/>
    <path stroke="#53596C" stroke-miterlimit="10" stroke-width=".71" d="M167.4 276.5c0-5.3-3.6-9.6-7.9-9.6-4.3 0-7.9 4.3-7.9 9.6"/>
    <path stroke="#53596C" stroke-miterlimit="10" stroke-width=".71" d="M166.8 276.5c0-4.9-3.2-8.8-7.3-8.8s-7.2 4-7.2 8.8M167.4 276.4l-.1 6.7M151.7 276.5v6.6"/>
    <path stroke="#53596C" stroke-miterlimit="10" stroke-width=".71" d="M166.8 280.7c0-4.9-3.2-8.8-7.3-8.8s-7.3 4-7.3 8.8M152.6 276.6v1.5M152.6 278.1l-.3-.1M152.3 276.5v6.6M166.3 278l.4.1M166.3 276.4v1.6M166.7 276.6v6.5M166.7 283.1h.6M224.3 326.5c0 4.6-3.1 8.3-6.8 8.3-3.7 0-6.8-3.7-6.8-8.2"/>
    <path stroke="#53596C" stroke-miterlimit="10" stroke-width=".71" d="M224.3 328.1c0 4.6-3.1 8.4-6.8 8.4-3.7 0-6.8-3.8-6.8-8.3"/>
    <path stroke="#53596C" stroke-miterlimit="10" stroke-width=".71" d="M225.3 328.1c0 5.3-3.5 9.7-7.8 9.7s-7.9-4.4-7.9-9.7"/>
    <path stroke="#53596C" stroke-miterlimit="10" stroke-width=".71" d="M224.7 328.1c0 4.9-3.3 8.8-7.3 8.8s-7.3-3.9-7.3-8.8M225.4 328.1l-.1-6.8M209.6 328.1v-6.8"/>
    <path stroke="#53596C" stroke-miterlimit="10" stroke-width=".71" d="M224.7 323.8c0 4.9-3.3 8.8-7.3 8.8s-7.3-4-7.3-8.8M210.6 328v-1.7M210.6 326.3l-.3.2M210.3 328.1v-6.8M224.3 326.5l.4-.2M224.3 328.1v-1.6M224.7 328v-6.7M224.7 321.3h.6M198.2 326.5c0 4.6-3.1 8.3-6.8 8.3-3.7 0-6.8-3.7-6.8-8.2"/>
    <path stroke="#53596C" stroke-miterlimit="10" stroke-width=".71" d="M198.2 328.1c0 4.6-3.1 8.4-6.8 8.4-3.7 0-6.8-3.8-6.8-8.3"/>
    <path stroke="#53596C" stroke-miterlimit="10" stroke-width=".71" d="M199.2 328.1c0 5.3-3.5 9.7-7.8 9.7s-7.9-4.4-7.9-9.7"/>
    <path stroke="#53596C" stroke-miterlimit="10" stroke-width=".71" d="M198.7 328.1c0 4.9-3.2 8.8-7.3 8.8s-7.3-3.9-7.3-8.8M199.3 328.1l-.1-6.6M183.5 328.1v-6.8"/>
    <path stroke="#53596C" stroke-miterlimit="10" stroke-width=".71" d="M198.7 323.8c0 4.9-3.2 8.8-7.3 8.8s-7.3-4-7.3-8.8M184.5 328v-1.7M184.5 326.3l-.3.2M184.1 328.1v-6.8M198.2 326.5l.4-.2M198.2 328.1v-1.6M198.6 328v-6.5M198.6 321.5h.6M169.8 326.8c0 4.7-3.1 8.4-6.9 8.4-3.8 0-6.8-3.7-6.8-8.3"/>
    <path stroke="#53596C" stroke-miterlimit="10" stroke-width=".71" d="M169.8 328.4c0 4.7-3.1 8.4-6.9 8.4-3.8 0-6.8-3.7-6.8-8.2"/>
    <path stroke="#53596C" stroke-miterlimit="10" stroke-width=".71" d="M170.7 328.4c0 5.4-3.4 9.7-7.7 9.7-4.3 0-8-4.3-8-9.7"/>
    <path stroke="#53596C" stroke-miterlimit="10" stroke-width=".71" d="M170.3 328.4c0 4.9-3.3 8.9-7.4 8.9-4.1 0-7.3-4-7.3-8.9M170.9 328.4l-.2-6.6M155.2 328.4v-6.7"/>
    <path stroke="#53596C" stroke-miterlimit="10" stroke-width=".71" d="M170.3 324.3c0 4.8-3.3 8.8-7.4 8.8-4.1 0-7.3-4-7.3-8.8M156 328.3v-1.6M156 326.7l-.2.1M155.8 328.4v-6.7M169.8 326.8l.3-.1M169.8 328.4v-1.6M170.1 328.3v-6.5M170.1 321.8h.6"/>
    <path stroke="#53596C" stroke-linecap="round" stroke-linejoin="round" stroke-width=".65" d="M295.2 364.9h-34.6v139.2M295.2 383.9h-34.6M293.7 414.1H260M294.7 444.6H260M293.7 473.9H260"/>
    <path stroke="#00263E" stroke-miterlimit="10" stroke-width="7.15" d="M298.1 363.5l-.7 144.3-36.8.2"/>
    <path stroke="#53596C" stroke-linecap="round" stroke-linejoin="round" stroke-width=".65" d="M280.6 495.7l-3.5-13.4M272.2 490.8l13.7-3.1M275.2 494.9l7.3-11.8M273 485.4l12 7.6M145.1 358.4h59.4v144"/>
    <path stroke="#53596C" stroke-linecap="round" stroke-linejoin="round" stroke-width=".65" d="M204.5 389.7h-30.2v-31.3M174.6 418.5h29.7M174.1 447.9h30.2"/>
    <path stroke="#53596C" stroke-miterlimit="10" stroke-width=".65" d="M184.1 438.4l-.1-10.5M186.5 438.4l-.1-10.4M188.8 438.5l-.1-10.5M191.3 438.5l-.1-10.4M193.8 438.5l-.1-10.5M197.4 415.6a4.3 4.3 0 100-8.6 4.3 4.3 0 000 8.6zM182.4 401.1a4.3 4.3 0 100-8.6 4.3 4.3 0 000 8.6zM196.6 400.5a3.8 3.8 0 100-7.6 3.8 3.8 0 000 7.6zM182.3 415.7a3.8 3.8 0 100-7.6 3.8 3.8 0 000 7.6zM177.8 452v24.6l22.3-.1.2-24.8-22.5.3z"/>
    <path stroke="#53596C" stroke-miterlimit="10" stroke-width=".65" d="M187.5 465.5a1.5 1.5 0 10-.001-3.001 1.5 1.5 0 00.001 3.001zM182.5 462.3l-13.6.1v3l13.6-.1v-3z"/>
    <path stroke="#00263E" stroke-miterlimit="10" stroke-width="10.52" d="M142 394.5l27.7.3-.8 109.3"/>
    <g>
      <path fill="#00263E" d="M262.562 249.83v4.68h5.04v20.52h5.832v-25.2h-10.872zm14.781 0v8.856h5.184v-4.104h8.352l-9.036 20.448h6.336l9.36-21.42v-3.78h-20.196zm39.439 11.952c1.872-1.152 2.952-2.916 2.952-5.184 0-4.428-3.96-7.2-9.756-7.2-5.724 0-9.684 2.772-9.684 7.2 0 2.268 1.044 4.032 2.916 5.184-2.412 1.224-3.816 3.24-3.816 5.94 0 4.752 4.212 7.74 10.584 7.74 6.408 0 10.656-2.988 10.656-7.74 0-2.7-1.404-4.716-3.852-5.94zm-6.804-8.1c2.376 0 3.96 1.188 3.96 3.168 0 1.908-1.548 3.096-3.96 3.096-2.376 0-3.888-1.188-3.888-3.096 0-1.98 1.548-3.168 3.888-3.168zm0 17.496c-2.88 0-4.68-1.404-4.68-3.636s1.8-3.6 4.68-3.6c2.916 0 4.752 1.368 4.752 3.6s-1.836 3.636-4.752 3.636zM258.81 285.03h67v1h-67zM259.386 291.43v3.51h1.278v-2.358h6.48l-5.184 11.448h1.404l5.274-11.682v-.918h-9.252zm17.843 5.994c1.296-.504 2.016-1.458 2.016-2.772 0-2.052-1.782-3.33-4.446-3.33-2.664 0-4.41 1.278-4.41 3.33 0 1.314.702 2.268 1.98 2.772-1.566.522-2.43 1.584-2.43 3.096 0 2.232 1.836 3.618 4.86 3.618 3.006 0 4.896-1.386 4.896-3.618 0-1.494-.882-2.574-2.466-3.096zm-5.544-2.736c0-1.404 1.206-2.268 3.114-2.268 1.89 0 3.132.864 3.132 2.286 0 1.368-1.17 2.25-3.132 2.25-1.962 0-3.114-.882-3.114-2.268zm3.114 8.352c-2.232 0-3.546-.972-3.546-2.538 0-1.548 1.314-2.52 3.546-2.52 2.232 0 3.564.972 3.564 2.52 0 1.566-1.332 2.538-3.564 2.538zm7.856-.882c-.54 0-.954.414-.954.972 0 .468.27.81.648.918l-.612 2.61h.864l.756-2.484c.18-.504.252-.738.252-1.044 0-.54-.396-.972-.954-.972zm6.137-5.562h-1.62l.432-4.014h5.76v-1.152h-6.894l-.648 6.318h2.682c3.204 0 4.212 1.008 4.212 2.628 0 1.53-1.134 2.574-3.276 2.574-1.62 0-3.06-.612-3.87-1.458l-.63 1.026c.972.99 2.7 1.62 4.518 1.62 3.078 0 4.572-1.674 4.572-3.816 0-2.232-1.44-3.726-5.238-3.726zM312.4 294.49c-1.71 0-3.06.774-3.744 1.998-.576-1.332-1.8-1.998-3.366-1.998-1.584 0-2.808.666-3.474 1.8v-1.728h-1.224v9.468h1.278v-4.968c0-2.16 1.242-3.42 3.168-3.42 1.728 0 2.736 1.026 2.736 3.024v5.364h1.278v-4.968c0-2.16 1.224-3.42 3.168-3.42 1.71 0 2.718 1.026 2.718 3.024v5.364h1.278v-5.49c0-2.718-1.512-4.05-3.816-4.05zm7.839 2.844l2.664-2.358c1.134-1.008 1.404-1.584 1.404-2.322 0-1.152-.972-2.052-2.916-2.052-1.314 0-2.304.396-2.916 1.134l.666.522c.486-.54 1.26-.828 2.196-.828 1.404 0 1.998.576 1.998 1.278 0 .522-.234.954-1.152 1.782l-3.42 3.024v.63h5.904v-.81h-4.428zM122.455 532.9v-1.62h3.25v-1.26h-3.25v-1.52h3.68v-1.3h-5.29v7h5.42v-1.3h-3.81zm7.799 1.42c2 0 2.97-1 2.97-2.17 0-2.57-4.07-1.68-4.07-2.97 0-.44.37-.8 1.33-.8.62 0 1.29.18 1.94.55l.5-1.23c-.65-.41-1.55-.62-2.43-.62-1.99 0-2.95.99-2.95 2.18 0 2.6 4.07 1.7 4.07 3.01 0 .43-.39.75-1.35.75-.84 0-1.72-.3-2.31-.73l-.55 1.22c.62.48 1.74.81 2.85.81zm4.477-.12h1.62v-7h-1.62v7zm8.471 0h1.89l-3.07-3.88 2.9-3.12h-1.8l-3.1 3.27v-3.27h-1.61v7h1.61v-1.77l.94-.98 2.24 2.75zM114.74 548.432l2.856-2.808c1.128-1.104 1.38-1.824 1.38-2.628 0-1.404-1.08-2.268-2.784-2.268-1.284 0-2.328.432-2.976 1.2l.612.528c.552-.636 1.308-.936 2.292-.936 1.284 0 1.968.6 1.968 1.572 0 .576-.18 1.14-1.128 2.076l-3.492 3.42v.612h5.892v-.768h-4.62zm6.482-.48a.628.628 0 00-.636.648c0 .312.18.54.432.612l-.408 1.74h.576l.504-1.656c.12-.336.168-.492.168-.696a.628.628 0 00-.636-.648zm6.812-3.156c.864-.336 1.344-.972 1.344-1.848 0-1.368-1.188-2.22-2.964-2.22s-2.94.852-2.94 2.22c0 .876.468 1.512 1.32 1.848-1.044.348-1.62 1.056-1.62 2.064 0 1.488 1.224 2.412 3.24 2.412 2.004 0 3.264-.924 3.264-2.412 0-.996-.588-1.716-1.644-2.064zm-3.696-1.824c0-.936.804-1.512 2.076-1.512 1.26 0 2.088.576 2.088 1.524 0 .912-.78 1.5-2.088 1.5s-2.076-.588-2.076-1.512zm2.076 5.568c-1.488 0-2.364-.648-2.364-1.692 0-1.032.876-1.68 2.364-1.68s2.376.648 2.376 1.68c0 1.044-.888 1.692-2.376 1.692zM143.06 542.84c-1.14 0-2.04.516-2.496 1.332-.384-.888-1.2-1.332-2.244-1.332-1.056 0-1.872.444-2.316 1.2v-1.152h-.816v6.312h.852v-3.312c0-1.44.828-2.28 2.112-2.28 1.152 0 1.824.684 1.824 2.016v3.576h.852v-3.312c0-1.44.816-2.28 2.112-2.28 1.14 0 1.812.684 1.812 2.016v3.576h.852v-3.66c0-1.812-1.008-2.7-2.544-2.7zm5.227 1.896l1.776-1.572c.756-.672.936-1.056.936-1.548 0-.768-.648-1.368-1.944-1.368-.876 0-1.536.264-1.944.756l.444.348c.324-.36.84-.552 1.464-.552.936 0 1.332.384 1.332.852 0 .348-.156.636-.768 1.188l-2.28 2.016v.42h3.936v-.54h-2.952zM243.625 180.45h1.89l-3.07-3.88 2.9-3.12h-1.8l-3.1 3.27v-3.27h-1.61v7h1.61v-1.77l.94-.98 2.24 2.75zm5.139-7.62c.39 0 .69-.28.69-.69 0-.41-.3-.69-.69-.69-.39 0-.7.28-.7.69 0 .41.31.69.7.69zm2.02 0c.39 0 .7-.28.7-.69 0-.41-.31-.69-.7-.69-.39 0-.69.28-.69.69 0 .41.3.69.69.69zm-1.01 7.74c2.2 0 3.83-1.53 3.83-3.62s-1.63-3.62-3.83-3.62c-2.21 0-3.83 1.54-3.83 3.62s1.62 3.62 3.83 3.62zm0-1.38c-1.25 0-2.19-.91-2.19-2.24s.94-2.24 2.19-2.24 2.19.91 2.19 2.24-.94 2.24-2.19 2.24zm7.827-6.36c.39 0 .69-.28.69-.69 0-.41-.3-.69-.69-.69-.39 0-.7.28-.7.69 0 .41.31.69.7.69zm2.02 0c.39 0 .7-.28.7-.69 0-.41-.31-.69-.7-.69-.39 0-.69.28-.69.69 0 .41.3.69.69.69zm-1.01 7.74c2.2 0 3.83-1.53 3.83-3.62s-1.63-3.62-3.83-3.62c-2.21 0-3.83 1.54-3.83 3.62s1.62 3.62 3.83 3.62zm0-1.38c-1.25 0-2.19-.91-2.19-2.24s.94-2.24 2.19-2.24 2.19.91 2.19 2.24-.94 2.24-2.19 2.24zm10.238 1.26h1.89l-3.07-3.88 2.9-3.12h-1.8l-3.1 3.27v-3.27h-1.61v7h1.61v-1.77l.94-.98 2.24 2.75zm2.341-2.19h2.83v-1.25h-2.83v1.25zm6.177.89v-1.62h3.25v-1.26h-3.25v-1.52h3.68v-1.3h-5.29v7h5.42v-1.3h-3.81zm5.499 1.3h5.13v-1.32h-3.51v-5.68h-1.62v7zm9.457.12c1.99 0 3.17-1.14 3.17-3.2v-3.92h-1.6v3.86c0 1.33-.57 1.88-1.56 1.88-.98 0-1.56-.55-1.56-1.88v-3.86h-1.62v3.92c0 2.06 1.18 3.2 3.17 3.2zm6.504-.12h1.62v-5.68h2.24v-1.32h-6.1v1.32h2.24v5.68zm8.124.12c1.99 0 3.17-1.14 3.17-3.2v-3.92h-1.6v3.86c0 1.33-.57 1.88-1.56 1.88-.98 0-1.56-.55-1.56-1.88v-3.86h-1.62v3.92c0 2.06 1.18 3.2 3.17 3.2zm10.311-3.76c.57-.3.93-.84.93-1.54 0-1.09-.9-1.82-2.65-1.82h-3.42v7h3.62c1.84 0 2.8-.7 2.8-1.91 0-.88-.5-1.48-1.28-1.73zm-1.92-2.14c.79 0 1.22.27 1.22.82 0 .55-.43.83-1.22.83h-1.61v-1.65h1.61zm.28 4.56h-1.89v-1.73h1.89c.84 0 1.29.28 1.29.87 0 .6-.45.86-1.29.86zm9.777 1.22h1.7l-3.13-7h-1.6l-3.12 7h1.66l.62-1.5h3.25l.62 1.5zm-3.35-2.73l1.11-2.68 1.11 2.68h-2.22zM263.48 190.65l2.376-2.988v-.612h-5.4v.768h4.296l-2.328 2.916v.636h.6c1.56 0 2.268.66 2.268 1.668 0 1.044-.768 1.692-2.16 1.692-1.092 0-2.064-.408-2.604-.972l-.42.684c.648.66 1.812 1.08 3.024 1.08 2.028 0 3.048-1.08 3.048-2.484 0-1.344-.9-2.292-2.7-2.388zm6.533-3.672c-1.632 0-2.868 1.008-2.868 2.58 0 1.536 1.164 2.52 2.832 2.52 1.164 0 2.148-.516 2.568-1.44.024.252.036.492.036.684 0 2.28-1.164 3.444-2.976 3.444-.624 0-1.2-.108-1.632-.396l-.348.696c.528.324 1.236.456 1.992.456 2.28 0 3.84-1.488 3.84-4.344 0-2.652-1.212-4.2-3.444-4.2zm.096 4.368c-1.296 0-2.112-.708-2.112-1.812 0-1.116.84-1.824 2.052-1.824 1.452 0 2.22.876 2.22 1.8 0 1.044-.876 1.836-2.16 1.836zm5.132 2.856a.628.628 0 00-.636.648c0 .312.18.54.432.612l-.408 1.74h.576l.504-1.656c.12-.336.168-.492.168-.696a.628.628 0 00-.636-.648zm1.502-7.152v2.34h.852v-1.572h4.32l-3.456 7.632h.936l3.516-7.788v-.612h-6.168zM296.06 189.09c-1.14 0-2.04.516-2.496 1.332-.384-.888-1.2-1.332-2.244-1.332-1.056 0-1.872.444-2.316 1.2v-1.152h-.816v6.312h.852v-3.312c0-1.44.828-2.28 2.112-2.28 1.152 0 1.824.684 1.824 2.016v3.576h.852v-3.312c0-1.44.816-2.28 2.112-2.28 1.14 0 1.812.684 1.812 2.016v3.576h.852v-3.66c0-1.812-1.008-2.7-2.544-2.7zm5.227 1.896l1.776-1.572c.756-.672.936-1.056.936-1.548 0-.768-.648-1.368-1.944-1.368-.876 0-1.536.264-1.944.756l.444.348c.324-.36.84-.552 1.464-.552.936 0 1.332.384 1.332.852 0 .348-.156.636-.768 1.188l-2.28 2.016v.42h3.936v-.54h-2.952z"/>
      <g>
        <path fill="#00263E" d="M468.056 192.95h1.62v-5.68h2.24v-1.32h-6.1v1.32h2.24v5.68zm8.124.12c1.99 0 3.17-1.14 3.17-3.2v-3.92h-1.6v3.86c0 1.33-.57 1.88-1.56 1.88-.98 0-1.56-.55-1.56-1.88v-3.86h-1.62v3.92c0 2.06 1.18 3.2 3.17 3.2zm10.311-3.76c.57-.3.93-.84.93-1.54 0-1.09-.9-1.82-2.65-1.82h-3.42v7h3.62c1.84 0 2.8-.7 2.8-1.91 0-.88-.5-1.48-1.28-1.73zm-1.92-2.14c.79 0 1.22.27 1.22.82 0 .55-.43.83-1.22.83h-1.61v-1.65h1.61zm.28 4.56h-1.89V190h1.89c.84 0 1.29.28 1.29.87 0 .6-.45.86-1.29.86zm9.777 1.22h1.7l-3.13-7h-1.6l-3.12 7h1.66l.62-1.5h3.25l.62 1.5zm-3.35-2.73l1.11-2.68 1.11 2.68h-2.22zM460.108 199.55v.768h1.98v7.632h.864v-8.4h-2.844zm7.708 3.6l2.376-2.988v-.612h-5.4v.768h4.296l-2.328 2.916v.636h.6c1.56 0 2.268.66 2.268 1.668 0 1.044-.768 1.692-2.16 1.692-1.092 0-2.064-.408-2.604-.972l-.42.684c.648.66 1.812 1.08 3.024 1.08 2.028 0 3.048-1.08 3.048-2.484 0-1.344-.9-2.292-2.7-2.388zm4.577 3.552a.628.628 0 00-.636.648c0 .312.18.54.432.612l-.408 1.74h.576l.504-1.656c.12-.336.168-.492.168-.696a.628.628 0 00-.636-.648zm4.857-3.552l2.376-2.988v-.612h-5.4v.768h4.296l-2.328 2.916v.636h.6c1.56 0 2.268.66 2.268 1.668 0 1.044-.768 1.692-2.16 1.692-1.092 0-2.064-.408-2.604-.972l-.42.684c.648.66 1.812 1.08 3.024 1.08 2.028 0 3.048-1.08 3.048-2.484 0-1.344-.9-2.292-2.7-2.388zM493.06 201.59c-1.14 0-2.04.516-2.496 1.332-.384-.888-1.2-1.332-2.244-1.332-1.056 0-1.872.444-2.316 1.2v-1.152h-.816v6.312h.852v-3.312c0-1.44.828-2.28 2.112-2.28 1.152 0 1.824.684 1.824 2.016v3.576h.852v-3.312c0-1.44.816-2.28 2.112-2.28 1.14 0 1.812.684 1.812 2.016v3.576h.852v-3.66c0-1.812-1.008-2.7-2.544-2.7zm5.227 1.896l1.776-1.572c.756-.672.936-1.056.936-1.548 0-.768-.648-1.368-1.944-1.368-.876 0-1.536.264-1.944.756l.444.348c.324-.36.84-.552 1.464-.552.936 0 1.332.384 1.332.852 0 .348-.156.636-.768 1.188l-2.28 2.016v.42h3.936v-.54h-2.952z"/>
      </g>
      <g>
        <path fill="#00263E" d="M483.106 344h1.62v-5.68h2.24V337h-6.1v1.32h2.24V344zm8.124.12c1.99 0 3.17-1.14 3.17-3.2V337h-1.6v3.86c0 1.33-.57 1.88-1.56 1.88-.98 0-1.56-.55-1.56-1.88V337h-1.62v3.92c0 2.06 1.18 3.2 3.17 3.2zm10.311-3.76c.57-.3.93-.84.93-1.54 0-1.09-.9-1.82-2.65-1.82h-3.42v7h3.62c1.84 0 2.8-.7 2.8-1.91 0-.88-.5-1.48-1.28-1.73zm-1.92-2.14c.79 0 1.22.27 1.22.82 0 .55-.43.83-1.22.83h-1.61v-1.65h1.61zm.28 4.56h-1.89v-1.73h1.89c.84 0 1.29.28 1.29.87 0 .6-.45.86-1.29.86zm9.777 1.22h1.7l-3.13-7h-1.6l-3.12 7h1.66l.62-1.5h3.25l.62 1.5zm-3.35-2.73l1.11-2.68 1.11 2.68h-2.22zM476.158 350.6v.768h1.98V359h.864v-8.4h-2.844zm4.336 0v.768h1.98V359h.864v-8.4h-2.844zm5.512 7.152a.628.628 0 00-.636.648c0 .312.18.54.432.612l-.408 1.74h.576l.504-1.656c.12-.336.168-.492.168-.696a.628.628 0 00-.636-.648zm4.091-3.708h-1.08l.288-2.676h3.84v-.768h-4.596l-.432 4.212h1.788c2.136 0 2.808.672 2.808 1.752 0 1.02-.756 1.716-2.184 1.716-1.08 0-2.04-.408-2.58-.972l-.42.684c.648.66 1.8 1.08 3.012 1.08 2.052 0 3.048-1.116 3.048-2.544 0-1.488-.96-2.484-3.492-2.484zM507.11 352.64c-1.14 0-2.04.516-2.496 1.332-.384-.888-1.2-1.332-2.244-1.332-1.056 0-1.872.444-2.316 1.2v-1.152h-.816V359h.852v-3.312c0-1.44.828-2.28 2.112-2.28 1.152 0 1.824.684 1.824 2.016V359h.852v-3.312c0-1.44.816-2.28 2.112-2.28 1.14 0 1.812.684 1.812 2.016V359h.852v-3.66c0-1.812-1.008-2.7-2.544-2.7zm5.226 1.896l1.776-1.572c.756-.672.936-1.056.936-1.548 0-.768-.648-1.368-1.944-1.368-.876 0-1.536.264-1.944.756l.444.348c.324-.36.84-.552 1.464-.552.936 0 1.332.384 1.332.852 0 .348-.156.636-.768 1.188l-2.28 2.016v.42h3.936v-.54h-2.952z"/>
      </g>
      <g>
        <path fill="#00263E" d="M336.413 35.447l-1.57-2.25c.91-.39 1.44-1.16 1.44-2.21 0-1.57-1.17-2.54-3.04-2.54h-3.03v7h1.62v-1.95h1.49l1.35 1.95h1.74zm-1.77-4.46c0 .76-.5 1.22-1.49 1.22h-1.32v-2.44h1.32c.99 0 1.49.45 1.49 1.22zm7.464-3.08c.7 0 1.15-.57 1.17-1.43h-.79c-.02.33-.21.54-.48.54-.36 0-.71-.64-1.4-.64-.7 0-1.15.57-1.17 1.46h.79c.02-.36.21-.56.48-.56.36 0 .71.63 1.4.63zm-.75 7.66c2.2 0 3.83-1.53 3.83-3.62s-1.63-3.62-3.83-3.62c-2.21 0-3.83 1.54-3.83 3.62s1.62 3.62 3.83 3.62zm0-1.38c-1.25 0-2.19-.91-2.19-2.24s.94-2.24 2.19-2.24 2.19.91 2.19 2.24-.94 2.24-2.19 2.24zm5.447 1.26h3.18c2.29 0 3.86-1.38 3.86-3.5s-1.57-3.5-3.86-3.5h-3.18v7zm1.62-1.33v-4.34h1.48c1.39 0 2.3.83 2.3 2.17 0 1.34-.91 2.17-2.3 2.17h-1.48zm10.152 1.45c1.99 0 3.17-1.14 3.17-3.2v-3.92h-1.6v3.86c0 1.33-.57 1.88-1.56 1.88-.98 0-1.56-.55-1.56-1.88v-3.86h-1.62v3.92c0 2.06 1.18 3.2 3.17 3.2zM333.714 47.471h-1.68v-1.943h-.84v1.944h-3.648l4.296-5.425h-.96l-4.452 5.569v.623h4.74v2.209h.864v-2.209h1.68v-.767zm1.688 1.729a.628.628 0 00-.636.647c0 .313.18.54.432.612l-.408 1.74h.576l.504-1.655c.12-.336.168-.492.168-.697a.628.628 0 00-.636-.648zm4.499-7.225c-1.632 0-2.868 1.008-2.868 2.58 0 1.537 1.164 2.52 2.832 2.52 1.164 0 2.148-.516 2.568-1.44.024.253.036.492.036.684 0 2.28-1.164 3.444-2.976 3.444-.624 0-1.2-.107-1.632-.395l-.348.695c.528.325 1.236.456 1.992.456 2.28 0 3.84-1.487 3.84-4.343 0-2.653-1.212-4.2-3.444-4.2zm.096 4.368c-1.296 0-2.112-.708-2.112-1.812 0-1.115.84-1.823 2.052-1.823 1.452 0 2.22.876 2.22 1.8 0 1.043-.876 1.835-2.16 1.835zM357.01 44.087c-1.14 0-2.04.516-2.496 1.332-.384-.887-1.2-1.331-2.244-1.331-1.056 0-1.872.444-2.316 1.2v-1.152h-.816v6.311h.852v-3.312c0-1.44.828-2.28 2.112-2.28 1.152 0 1.824.684 1.824 2.017v3.575h.852v-3.312c0-1.44.816-2.28 2.112-2.28 1.14 0 1.812.684 1.812 2.017v3.575h.852v-3.66c0-1.812-1.008-2.7-2.544-2.7zm5.227 1.896l1.776-1.572c.756-.672.936-1.056.936-1.547 0-.768-.648-1.368-1.944-1.368-.876 0-1.536.264-1.944.755l.444.349c.324-.36.84-.553 1.464-.553.936 0 1.332.385 1.332.853 0 .348-.156.636-.768 1.188l-2.28 2.015v.42h3.936v-.54h-2.952z"/>
      </g>
      <g>
        <path fill="#00263E" d="M455.241 478l-2.16 5-2.13-5h-1.75l3.02 7h1.6l3.03-7h-1.61zm7.59 7h1.7l-3.13-7h-1.6l-3.12 7h1.66l.62-1.5h3.25l.62 1.5zm-3.35-2.73l1.11-2.68 1.11 2.68h-2.22zm10.996-4.27v4.25l-3.48-4.25h-1.34v7h1.6v-4.25l3.49 4.25h1.33v-7h-1.6zm8.476 0v4.25l-3.48-4.25h-1.34v7h1.6v-4.25l3.49 4.25h1.33v-7h-1.6zm3.656 7h1.62v-7h-1.62v7zm5.132 0h1.62v-5.68h2.24V478h-6.1v1.32h2.24V485zm8.124.12c1.99 0 3.17-1.14 3.17-3.2V478h-1.6v3.86c0 1.33-.57 1.88-1.56 1.88-.98 0-1.56-.55-1.56-1.88V478h-1.62v3.92c0 2.06 1.18 3.2 3.17 3.2zm10.311-3.76c.57-.3.93-.84.93-1.54 0-1.09-.9-1.82-2.65-1.82h-3.42v7h3.62c1.84 0 2.8-.7 2.8-1.91 0-.88-.5-1.48-1.28-1.73zm-1.92-2.14c.79 0 1.22.27 1.22.82 0 .55-.43.83-1.22.83h-1.61v-1.65h1.61zm.28 4.56h-1.89v-1.73h1.89c.84 0 1.29.28 1.29.87 0 .6-.45.86-1.29.86zm9.776 1.22h1.7l-3.13-7h-1.6l-3.12 7h1.66l.62-1.5h3.25l.62 1.5zm-3.35-2.73l1.11-2.68 1.11 2.68h-2.22zM464.484 491.6v2.34h.852v-1.572h4.32L466.2 500h.936l3.516-7.788v-.612h-6.168zm7.333 7.152a.628.628 0 00-.636.648c0 .312.18.54.432.612l-.408 1.74h.576l.504-1.656c.12-.336.168-.492.168-.696a.628.628 0 00-.636-.648zm4.091-3.708h-1.08l.288-2.676h3.84v-.768h-4.596l-.432 4.212h1.788c2.136 0 2.808.672 2.808 1.752 0 1.02-.756 1.716-2.184 1.716-1.08 0-2.04-.408-2.58-.972l-.42.684c.648.66 1.8 1.08 3.012 1.08 2.052 0 3.048-1.116 3.048-2.544 0-1.488-.96-2.484-3.492-2.484zM492.16 493.64c-1.14 0-2.04.516-2.496 1.332-.384-.888-1.2-1.332-2.244-1.332-1.056 0-1.872.444-2.316 1.2v-1.152h-.816V500h.852v-3.312c0-1.44.828-2.28 2.112-2.28 1.152 0 1.824.684 1.824 2.016V500h.852v-3.312c0-1.44.816-2.28 2.112-2.28 1.14 0 1.812.684 1.812 2.016V500h.852v-3.66c0-1.812-1.008-2.7-2.544-2.7zm5.226 1.896l1.776-1.572c.756-.672.936-1.056.936-1.548 0-.768-.648-1.368-1.944-1.368-.876 0-1.536.264-1.944.756l.444.348c.324-.36.84-.552 1.464-.552.936 0 1.332.384 1.332.852 0 .348-.156.636-.768 1.188l-2.28 2.016v.42h3.936v-.54h-2.952z"/>
      </g>
      <g>
        <path fill="#00263E" d="M357.762 522.728h-3.03v7h1.62v-1.93h1.41c1.87 0 3.04-.97 3.04-2.53 0-1.57-1.17-2.54-3.04-2.54zm-.09 3.75h-1.32v-2.43h1.32c.99 0 1.49.45 1.49 1.22 0 .76-.5 1.21-1.49 1.21zm9.565 3.25h1.7l-3.13-7h-1.6l-3.12 7h1.66l.62-1.5h3.25l.62 1.5zm-3.35-2.73l1.11-2.68 1.11 2.68h-2.22zm10.996-4.27v4.25l-3.48-4.25h-1.34v7h1.6v-4.25l3.49 4.25h1.33v-7h-1.6zm3.656 7h1.62v-7h-1.62v7zm6.711-7h-3.03v7h1.62v-1.93h1.41c1.87 0 3.04-.97 3.04-2.53 0-1.57-1.17-2.54-3.04-2.54zm-.09 3.75h-1.32v-2.43h1.32c.99 0 1.49.45 1.49 1.22 0 .76-.5 1.21-1.49 1.21zm9.565 3.25h1.7l-3.13-7h-1.6l-3.12 7h1.66l.62-1.5h3.25l.62 1.5zm-3.35-2.73l1.11-2.68 1.11 2.68h-2.22zm6.177 2.73h1.62v-7h-1.62v7zm8.471 0h1.89l-3.07-3.88 2.9-3.12h-1.8l-3.1 3.27v-3.27h-1.61v7h1.61v-1.77l.94-.98 2.24 2.75zM362.962 536.328v.768h1.98v7.632h.864v-8.4h-2.844zm5.511 7.152a.628.628 0 00-.636.648c0 .312.18.54.432.612l-.408 1.74h.576l.504-1.656c.12-.336.168-.492.168-.696a.628.628 0 00-.636-.648zm6.813-3.156c.864-.336 1.344-.972 1.344-1.848 0-1.368-1.188-2.22-2.964-2.22s-2.94.852-2.94 2.22c0 .876.468 1.512 1.32 1.848-1.044.348-1.62 1.056-1.62 2.064 0 1.488 1.224 2.412 3.24 2.412 2.004 0 3.264-.924 3.264-2.412 0-.996-.588-1.716-1.644-2.064zm-3.696-1.824c0-.936.804-1.512 2.076-1.512 1.26 0 2.088.576 2.088 1.524 0 .912-.78 1.5-2.088 1.5s-2.076-.588-2.076-1.512zm2.076 5.568c-1.488 0-2.364-.648-2.364-1.692 0-1.032.876-1.68 2.364-1.68s2.376.648 2.376 1.68c0 1.044-.888 1.692-2.376 1.692zM389.914 538.368c-1.14 0-2.04.516-2.496 1.332-.384-.888-1.2-1.332-2.244-1.332-1.056 0-1.872.444-2.316 1.2v-1.152h-.816v6.312h.852v-3.312c0-1.44.828-2.28 2.112-2.28 1.152 0 1.824.684 1.824 2.016v3.576h.852v-3.312c0-1.44.816-2.28 2.112-2.28 1.14 0 1.812.684 1.812 2.016v3.576h.852v-3.66c0-1.812-1.008-2.7-2.544-2.7zm5.226 1.896l1.776-1.572c.756-.672.936-1.056.936-1.548 0-.768-.648-1.368-1.944-1.368-.876 0-1.536.264-1.944.756l.444.348c.324-.36.84-.552 1.464-.552.936 0 1.332.384 1.332.852 0 .348-.156.636-.768 1.188l-2.28 2.016v.42h3.936v-.54h-2.952z"/>
      </g>
      <g>
        <path fill="#00263E" d="M378.148 383.5l-1.63 4.96-1.6-4.96h-1.5l-1.65 4.92-1.58-4.92h-1.68l2.3 7h1.73l1.59-4.74 1.54 4.74h1.74l2.29-7h-1.55zm6.117 7.12c1.22 0 2.23-.44 2.89-1.25l-1.04-.96c-.47.55-1.06.83-1.76.83-1.31 0-2.24-.92-2.24-2.24 0-1.32.93-2.24 2.24-2.24.7 0 1.29.28 1.76.82l1.04-.96c-.66-.8-1.67-1.24-2.88-1.24-2.18 0-3.8 1.51-3.8 3.62 0 2.11 1.62 3.62 3.79 3.62zM359.962 397.1v.768h1.98v7.632h.864v-8.4h-2.844zm5.511 7.152a.628.628 0 00-.636.648c0 .312.18.54.432.612l-.408 1.74h.576l.504-1.656c.12-.336.168-.492.168-.696a.628.628 0 00-.636-.648zm4.499-7.224c-1.632 0-2.868 1.008-2.868 2.58 0 1.536 1.164 2.52 2.832 2.52 1.164 0 2.148-.516 2.568-1.44.024.252.036.492.036.684 0 2.28-1.164 3.444-2.976 3.444-.624 0-1.2-.108-1.632-.396l-.348.696c.528.324 1.236.456 1.992.456 2.28 0 3.84-1.488 3.84-4.344 0-2.652-1.212-4.2-3.444-4.2zm.096 4.368c-1.296 0-2.112-.708-2.112-1.812 0-1.116.84-1.824 2.052-1.824 1.452 0 2.22.876 2.22 1.8 0 1.044-.876 1.836-2.16 1.836zM386.914 399.14c-1.14 0-2.04.516-2.496 1.332-.384-.888-1.2-1.332-2.244-1.332-1.056 0-1.872.444-2.316 1.2v-1.152h-.816v6.312h.852v-3.312c0-1.44.828-2.28 2.112-2.28 1.152 0 1.824.684 1.824 2.016v3.576h.852v-3.312c0-1.44.816-2.28 2.112-2.28 1.14 0 1.812.684 1.812 2.016v3.576h.852v-3.66c0-1.812-1.008-2.7-2.544-2.7zm5.226 1.896l1.776-1.572c.756-.672.936-1.056.936-1.548 0-.768-.648-1.368-1.944-1.368-.876 0-1.536.264-1.944.756l.444.348c.324-.36.84-.552 1.464-.552.936 0 1.332.384 1.332.852 0 .348-.156.636-.768 1.188l-2.28 2.016v.42h3.936v-.54h-2.952z"/>
      </g>
    </g>
    <g>
      <path fill="#0E1632" fill-opacity=".3" fill-rule="evenodd" d="M626.126 46.394c4.839 6.308 13.164 8.35 20.119 5.465l-.581-.393c-6.645 2.574-14.488.564-19.081-5.423-4.419-5.76-4.503-13.473-.755-19.171l-.24-.683c-4.125 5.93-4.13 14.12.538 20.205zm8.202-26.042l-.607-.405c6.798-2.45 14.712-.335 19.381 5.752 4.889 6.372 4.652 15.052-.073 21.028l-.227-.657c4.343-5.762 4.486-13.968-.157-20.02-4.418-5.76-11.843-7.839-18.317-5.698z" clip-rule="evenodd"/>
      <path fill="#F7C790" fill-rule="evenodd" d="M655.219 56.388l-17.781-16.607 6.347-4.87 11.434 21.477z" clip-rule="evenodd"/>
      <path fill="#00263E" fill-rule="evenodd" d="M624.179 15.926l17.781 16.608-6.347 4.87-11.434-21.478z" clip-rule="evenodd"/>
      <path fill="#00263E" d="M625.123.883v6.8l-5.568-6.8h-2.144v11.2h2.56v-6.8l5.584 6.8h2.128V.884h-2.56z"/>
    </g>
  </g>
  <defs>
    <clipPath id="clip0">
      <path fill="#fff" d="M0 0h657v584H0z"/>
    </clipPath>
  </defs>
</svg>
